<svg version="1.2" xmlns="http://www.w3.org/2000/svg" viewBox="0 0 3264 3264" width="3264" height="3264">
	<style>
		.s0 { opacity: 1;fill: #36004c } 
		.s1 { fill: #fffeff } 
		.s2 { fill: #e08dff } 
	</style>
	<g id="Background">
		<path id="Path 0" class="s0" d="m1839.5 919.94c-3.85 0.44-9.7 1.58-13 2.53-3.3 0.96-8.7 3.1-12 4.77-3.3 1.66-8.03 4.4-10.5 6.09l-4.5 3.06c-21.7-0.36-32.61 0.01-38.25 0.58-5.68 0.57-13.71 2.18-18 3.62l-7.75 2.58c-13.17-4.09-21.28-5.69-26.5-6.2-5.22-0.51-14.45-0.92-20.5-0.92-6.05 0-15.5 0.45-21 0.99-6.08 0.6-13.14 2.09-18 3.79l-8 2.79c-12.13-4.4-19.75-6.11-25.25-6.76-6-0.69-17.26-0.91-29.25-0.56-13.45 0.39-21.36 1.07-25.5 2.21-3.3 0.9-8.7 2.82-12 4.25-5.34 2.32-6.33 2.47-9 1.33-1.65-0.71-5.92-2.35-9.5-3.65-3.58-1.3-11.22-2.89-17-3.53-6.44-0.71-17.45-0.94-28.5-0.59-12.86 0.41-20 1.1-25 2.43-3.85 1.03-10.15 3.45-14 5.38-3.85 1.94-8.91 4.95-11.25 6.69l-4.25 3.18c-8.91-4.48-15.1-7.17-19.5-8.88-4.4-1.7-11.38-4.03-15.5-5.19-4.13-1.15-11.1-2.76-15.5-3.58-4.4-0.81-14.75-1.74-23-2.05-9.06-0.35-18.96-0.11-25 0.6-5.5 0.65-13.38 1.87-17.5 2.71-4.13 0.84-12.22 3.1-18 5.01-5.78 1.92-14.55 5.61-19.5 8.21-4.95 2.59-13.28 7.68-18.5 11.31-5.22 3.63-13.98 10.59-19.46 15.48-5.48 4.88-13.36 13.15-17.52 18.38-4.15 5.22-9.66 12.87-12.23 17-2.58 4.12-6.48 11.32-8.68 16-2.19 4.67-5.4 12.78-7.11 18-1.72 5.22-4.01 13.78-5.08 19-1.08 5.22-2.44 14.67-3.04 21-0.59 6.32-0.78 15.78-0.42 21 0.37 5.22 1.13 12.87 1.69 17 0.57 4.12 2.12 11.66 3.44 16.75 1.33 5.09 4.03 13.41 6.02 18.5 1.98 5.09 4.96 11.95 6.62 15.25 1.66 3.3 5.5 9.82 8.53 14.5 3.04 4.67 7.14 10.53 9.12 13 1.98 2.47 6.67 7.87 10.43 12 3.76 4.12 10.06 10.14 14.01 13.37 3.95 3.22 10.33 8 14.18 10.6 3.85 2.61 11.5 7.01 17 9.76 5.5 2.76 13.15 6.18 17 7.6 3.85 1.42 11.5 3.68 17 5.03 5.5 1.35 13.83 3 18.5 3.68 5.63 0.81 14.92 1.03 27.5 0.67 13.64-0.4 21.54-1.12 28-2.56 4.95-1.1 12.83-3.21 17.5-4.69 4.67-1.48 13-4.67 18.5-7.08 5.5-2.42 10.34-4.39 10.75-4.39 0.41 0.01 2.89 1.53 5.5 3.39 2.61 1.86 7.11 4.56 10 6 2.89 1.44 8.74 3.63 13 4.87 7.14 2.07 9.77 2.25 33.25 2.25 23.48 0 26.11-0.18 33.25-2.25 4.26-1.24 10.45-3.6 13.75-5.25l6-3c7.36 3.69 11.64 5.49 14.25 6.38 2.61 0.89 8.69 2.3 13.5 3.13 5.29 0.91 14.87 1.5 24.25 1.49 8.53-0.01 18.42-0.49 22-1.07 3.58-0.58 9.56-2.04 13.29-3.24 6.67-2.15 6.87-2.16 11-0.37 2.32 1 8.04 2.73 12.71 3.84 7.65 1.82 11.09 1.98 34.5 1.65l26-0.37c17.17-5.94 18.25-6.1 20.75-4.84 1.51 0.77 6.46 2.3 11 3.39 7.02 1.7 11.72 2 31.5 2 17.23 0.01 25.13-0.39 30.5-1.54 3.99-0.85 9.95-2.65 13.25-4 3.3-1.36 8.47-3.92 11.5-5.71 3.03-1.78 9.55-7.33 14.5-12.33l9-9.1c5.42 3.68 11.28 6.94 16.5 9.63 5.22 2.69 12.88 6.23 17 7.88 4.13 1.64 11.78 4.2 17 5.68 5.22 1.48 14.9 3.8 21.5 5.15 9.15 1.87 16.51 2.59 31 3.03 12.48 0.38 22.09 0.16 28-0.64 4.95-0.66 13.28-2.28 18.5-3.59 5.22-1.31 13.55-3.96 18.5-5.88 4.95-1.93 12.83-5.8 17.5-8.6 4.68-2.8 10.75-6.84 13.5-8.96 2.75-2.13 8.04-6.94 11.74-10.69 3.71-3.75 8.78-9.52 11.26-12.82 2.48-3.3 6.6-10.05 9.16-15 2.56-4.95 5.65-11.93 6.87-15.5 1.21-3.58 3.03-10.33 4.04-15 1.3-6.02 1.84-12.73 1.85-23 0.01-10.25-0.52-16.99-1.8-23-1-4.68-3.17-12.33-4.83-17-1.65-4.68-4.6-11.65-6.55-15.5l-3.54-7c7.25-14.72 10.28-22.15 11.41-26 1.28-4.35 2.26-11.35 2.59-18.5 0.49-10.33 0.27-12.52-2.13-21.5-1.47-5.5-4.09-12.93-5.82-16.5-1.73-3.58-5.87-10.08-9.2-14.45-3.33-4.38-8.98-10.39-12.55-13.36-3.57-2.98-9.43-7.3-13-9.6-3.57-2.3-9.09-5.63-12.25-7.39-3.16-1.76-10.81-4.95-17-7.08-6.19-2.14-15.75-4.82-21.25-5.97-5.5-1.14-15.62-2.6-22.5-3.24-6.87-0.63-16.78-0.88-22-0.54-5.22 0.34-13.33 1.29-18 2.12-4.67 0.82-12.66 2.62-17.75 4l-9.25 2.51c-8.14-7.18-13.2-11.09-16.5-13.32-3.3-2.23-8.25-5.08-11-6.34-2.75-1.25-8.37-3.15-12.5-4.22-4.35-1.13-12.54-2.16-19.5-2.46-6.6-0.28-15.15-0.16-19 0.28zm958.5 257.74c-2.47 0.18-11.25 1.02-19.5 1.88-8.25 0.86-21.07 2.67-28.5 4.02-7.43 1.36-19.8 3.99-27.5 5.86-7.7 1.86-22.1 6.05-32 9.31-9.9 3.27-24.75 8.79-33 12.28-8.25 3.48-21.53 9.68-29.5 13.77-7.97 4.08-19.68 10.57-26 14.41-6.32 3.84-15.78 9.97-21 13.61-5.22 3.64-13.32 9.52-18 13.07-4.68 3.55-12.55 9.86-17.5 14.03-4.94 4.17-14.33 12.75-20.86 19.08-6.53 6.32-16.24 16.45-21.58 22.5-5.34 6.05-13.25 15.5-17.59 21-4.34 5.5-7.9 10.12-7.93 10.27-0.02 0.14-6.79-2.01-15.04-4.79-8.25-2.77-22.88-7.01-32.5-9.41-9.63-2.4-24.47-5.53-33-6.95-8.53-1.43-21.57-3.31-29-4.18-7.98-0.94-26.19-1.82-44.5-2.15-25.92-0.46-33.13-0.27-44 1.16-7.15 0.95-19.75 3.04-28 4.66-8.25 1.61-20.63 4.47-27.5 6.37-6.88 1.89-17.68 5.22-24 7.39-6.32 2.18-17.35 6.5-24.5 9.61-7.15 3.11-17.72 8.17-23.5 11.26-5.78 3.08-14.1 7.82-18.5 10.54-4.4 2.71-11.38 7.22-15.5 10.01-4.13 2.79-11.55 8.22-16.5 12.06-4.95 3.85-12.82 10.5-17.5 14.78-4.68 4.28-8.84 7.8-9.25 7.83-0.41 0.02-1.22-1.87-1.8-4.21-0.58-2.34-2.6-8.3-4.48-13.25-1.89-4.95-5.49-12.6-8.01-17-2.51-4.4-6.95-11.15-9.87-15-2.91-3.85-8.4-10.11-12.19-13.92-3.8-3.8-10.28-9.48-14.4-12.61-4.13-3.14-12-8.11-17.5-11.05-5.5-2.93-13.38-6.6-17.5-8.15-4.13-1.55-11.55-3.73-16.5-4.84-4.95-1.12-15.08-2.5-22.5-3.09-8.21-0.64-30.54-0.85-57-0.54-33.98 0.4-45.31 0.86-51.75 2.11-4.54 0.87-12.64 2.99-18 4.71-5.36 1.72-13.35 4.92-17.75 7.11-4.4 2.19-11.83 6.51-16.5 9.59-4.67 3.08-12.78 9.74-18 14.79-5.22 5.05-12.05 12.72-15.16 17.04-3.12 4.32-7.5 11.34-9.75 15.6-2.33 4.41-4.74 7.75-5.59 7.75-0.83 0-1.77-1.01-2.1-2.25-0.32-1.24-2.42-5.4-4.66-9.25-2.24-3.85-6.09-9.7-8.56-13-2.46-3.3-7.9-9.53-12.08-13.84-4.18-4.32-10.75-10.18-14.6-13.04-3.85-2.86-9.25-6.56-12-8.23-2.75-1.67-7.7-4.28-11-5.8-3.3-1.52-9.38-4.02-13.5-5.55-4.13-1.53-12.67-3.85-19-5.16-11.28-2.33-12.53-2.38-65-2.38-47.28 0-54.6 0.21-63 1.8-5.22 0.98-13.55 3.15-18.5 4.82-4.95 1.67-12.83 4.93-17.5 7.26-4.67 2.33-11.88 6.5-16 9.26-4.13 2.77-11.72 9.05-16.88 13.95-5.16 4.9-12.24 12.73-15.73 17.41-3.5 4.67-8.57 12.78-11.28 18-2.71 5.22-6.35 13.78-8.1 19-1.74 5.22-3.36 9.84-3.59 10.25-0.23 0.41-4.13-2.53-8.67-6.54-4.54-4.02-12.75-10.89-18.25-15.27-5.5-4.39-14.5-11.15-20-15.03-5.5-3.89-14.95-10.16-21-13.95-6.05-3.78-18.65-10.81-28-15.61-9.35-4.79-22.4-11.03-29-13.85-6.6-2.82-18.97-7.52-27.5-10.44-8.53-2.92-22.7-7.15-31.5-9.4-8.8-2.24-22.08-5.19-29.5-6.56-7.42-1.36-20.03-3.27-28-4.25-10.93-1.34-22.12-1.78-45.5-1.81-19.25-0.03-35.55 0.46-43 1.28-6.6 0.73-19.65 2.62-29 4.2-9.35 1.58-23.97 4.66-32.5 6.84-8.52 2.18-20.9 5.75-27.5 7.93-6.6 2.18-17.4 6.08-24 8.66-6.6 2.59-20.55 8.91-31 14.05-10.45 5.14-25.3 13.24-33 18-7.7 4.76-18.5 11.87-24 15.81-5.5 3.93-14.27 10.57-19.5 14.74-5.23 4.17-14.56 12.16-20.75 17.77-6.19 5.6-11.45 9.84-11.69 9.43-0.24-0.41-1.55-4.58-2.91-9.25-1.37-4.68-4.17-12.33-6.23-17-2.06-4.68-5.67-11.65-8.02-15.5-2.36-3.85-7.17-10.6-10.7-15-3.53-4.4-9.06-10.44-12.31-13.42-3.24-2.99-9.27-7.94-13.39-11.02-4.13-3.08-12-7.9-17.5-10.72-5.5-2.82-14.39-6.52-19.75-8.23-5.36-1.71-13.91-3.84-19-4.74-7.32-1.29-18.86-1.73-55.25-2.1-27.8-0.29-51.34-0.06-59.5 0.58-7.42 0.58-17.55 1.95-22.5 3.06-4.95 1.1-10.8 2.62-13 3.39l-4 1.38c-16.27-14.74-24.38-21.7-28.5-24.99-4.13-3.28-13.13-9.69-20-14.23-6.88-4.54-17-10.74-22.5-13.77-5.5-3.04-15.85-8.08-23-11.2-7.15-3.12-19.52-7.85-27.5-10.5-7.98-2.65-19.9-6.02-26.5-7.49-6.6-1.47-18.07-3.62-25.5-4.78-11.37-1.78-17.92-2.12-41.5-2.12-23.58 0-30.13 0.34-41.5 2.12-7.43 1.16-18.9 3.32-25.5 4.79-6.6 1.47-18.52 4.83-26.5 7.46-7.97 2.64-19.9 7.11-26.5 9.95-6.6 2.84-17.4 8.13-24 11.76-6.6 3.62-16.95 9.87-23 13.89-6.05 4.01-15.95 11.26-22 16.09-6.05 4.84-16.86 14.65-24.02 21.82-7.16 7.16-16.79 17.74-21.4 23.52-4.62 5.78-12.26 16.35-16.99 23.5-4.72 7.15-11.81 19.3-15.75 27-3.94 7.7-8.84 18.05-10.89 23-2.05 4.95-5.26 13.5-7.14 19-1.87 5.5-4.91 16.07-6.75 23.5-1.83 7.42-4.05 17.78-4.93 23-0.88 5.22-2.1 13.78-2.71 19-0.62 5.22-1.12 19.17-1.13 31 0 13.4 0.59 26.4 1.56 34.5 0.87 7.15 2.76 18.85 4.21 26 1.44 7.15 4.13 17.95 5.96 24 1.84 6.05 4.88 15.28 6.77 20.5 1.9 5.22 5.6 14.22 8.24 20 2.64 5.78 7.28 15 10.31 20.5 3.03 5.5 7.52 13.15 9.98 17 2.47 3.85 8.01 11.84 12.33 17.75l7.85 10.75c-3.03 14.34-4.64 24.35-5.53 31.5-1.01 8.16-1.61 20.45-1.59 33 0.01 12.45 0.62 24.53 1.61 32 0.87 6.6 2.46 16.28 3.51 21.5 1.06 5.22 3.08 13.55 4.49 18.5 1.41 4.95 4.17 13.5 6.14 19 1.98 5.5 6.49 16.07 10.03 23.5 3.55 7.42 9.2 18 12.56 23.5 3.36 5.5 9.79 14.95 14.29 21 4.49 6.05 12.01 15.28 16.71 20.5 4.7 5.22 11.85 12.45 15.91 16.05 4.05 3.6 10.07 8.78 13.37 11.51 3.3 2.73 10.28 7.94 15.5 11.58 5.22 3.64 14.45 9.45 20.5 12.91 6.05 3.47 15.95 8.5 22 11.2 6.05 2.69 16.18 6.68 22.5 8.87 6.32 2.19 15.77 5.05 21 6.38 5.23 1.32 14.45 3.28 20.5 4.36 6.05 1.09 17.3 2.52 25 3.19 8.64 0.76 20.13 0.98 30 0.59 8.8-0.35 22.3-1.57 30-2.71 7.7-1.14 19.85-3.56 27-5.38 7.15-1.82 18.45-5.28 25.1-7.68l12.11-4.37c3.92 13.95 6.78 21.82 8.89 26.5 2.1 4.68 5.59 11.43 7.75 15 2.16 3.57 6 9.19 8.54 12.47 2.53 3.28 8.27 9.58 12.75 14 4.47 4.42 11.67 10.58 16 13.7 4.32 3.12 11.69 7.71 16.36 10.2 4.67 2.49 13.23 6.1 19 8.02 5.77 1.92 14.55 4.18 19.5 5.01 6.66 1.13 20.96 1.69 55 2.16 28.78 0.4 51.24 0.25 60-0.4 7.7-0.58 17.6-1.78 22-2.68 4.4-0.9 11.37-2.77 15.5-4.16 4.12-1.4 12.23-4.97 18-7.94 5.77-2.97 13.87-7.93 18-11.02 4.12-3.09 10.35-8.37 13.83-11.74 3.48-3.37 9.57-10.4 13.53-15.62 3.96-5.22 9.5-14 12.31-19.5 2.81-5.5 6.49-14.05 8.17-19 1.69-4.95 3.43-10.97 3.86-13.37 0.44-2.4 1.14-4.54 1.55-4.75 0.41-0.21 4.63 3.11 9.38 7.37 4.74 4.26 12.5 11.05 17.25 15.09 4.74 4.03 12.22 10.12 16.62 13.53 4.4 3.41 12.27 9.16 17.5 12.78 5.23 3.62 14.23 9.41 20 12.88 5.77 3.47 18.15 10.06 27.5 14.66 9.35 4.59 23.75 11.01 32 14.26 8.25 3.25 21.08 7.77 28.5 10.04 7.42 2.27 20.02 5.66 28 7.53 7.97 1.87 20.12 4.31 27 5.4 6.87 1.1 19.7 2.75 28.5 3.67 10.43 1.09 24.7 1.67 41 1.67 16.4 0 30.5-0.58 41-1.68 8.8-0.92 22.75-2.82 31-4.22 8.25-1.39 22.2-4.34 31-6.55 8.8-2.21 22.08-6.03 29.5-8.5 7.42-2.46 18.67-6.5 25-8.99 6.33-2.48 17.58-7.42 25-10.97 7.42-3.55 18.45-9.2 24.5-12.56 6.05-3.36 15.95-9.32 22-13.25 6.05-3.94 15.5-10.47 21-14.52 5.5-4.05 14.05-10.75 19-14.89 4.95-4.15 15.76-14.31 24.02-22.58 8.25-8.28 20.18-21.25 26.5-28.84 6.31-7.58 11.82-13.77 12.23-13.75 0.41 0.02 2.44 2.77 4.5 6.12 2.06 3.34 6.9 10.44 10.75 15.78 3.85 5.34 9.9 13.3 13.44 17.68 3.54 4.38 11.86 13.53 18.5 20.33 6.63 6.81 17.01 16.52 23.06 21.58 6.05 5.06 15.05 12.11 20 15.66 4.95 3.55 12.83 8.86 17.5 11.81 4.67 2.95 13.9 8.2 20.5 11.67 6.6 3.47 16.5 8.3 22 10.73 5.5 2.43 15.85 6.46 23 8.95 7.15 2.49 19.53 6.13 27.5 8.09 7.97 1.95 19.9 4.45 26.5 5.55 6.6 1.09 17.17 2.46 23.5 3.04 6.33 0.57 20.72 1.04 32 1.04 11.28 0 25.67-0.47 32-1.05 6.33-0.58 17.35-1.93 24.5-3 7.15-1.08 17.5-2.9 23-4.05 5.5-1.15 14.05-3.19 19-4.53 4.95-1.35 13.28-3.84 18.5-5.53 5.22-1.7 14.22-5.01 20-7.37 5.78-2.35 15.22-6.48 21-9.18 5.78-2.7 15.45-7.78 21.5-11.29 6.05-3.51 16.17-9.82 22.5-14.03 6.33-4.21 16.22-11.39 22-15.95 5.78-4.57 18.04-15.89 27.25-25.16 9.21-9.27 16.97-16.85 17.25-16.85 0.28 0 4 3.49 8.28 7.75 4.27 4.26 11.92 10.68 16.99 14.25 5.07 3.57 14.51 9.53 20.98 13.24 6.46 3.71 18.5 9.84 26.75 13.63 8.25 3.78 19.28 8.25 24.5 9.93 5.22 1.68 14 3.82 19.5 4.76 7.68 1.31 13.24 1.58 24 1.14 7.7-0.32 17.04-1.28 20.75-2.14l6.75-1.56c12.79 11.77 20.1 17.59 24.5 20.53 4.4 2.94 12.39 7.4 17.75 9.91 5.36 2.51 13.69 5.71 18.5 7.12 4.81 1.4 15.05 3.62 22.75 4.93 7.7 1.31 19.85 2.93 27 3.59 8.42 0.78 21.63 1.01 37.5 0.63 13.47-0.31 30.12-1.27 37-2.13 6.87-0.86 16.55-2.26 21.5-3.11 4.95-0.85 13.28-2.47 18.5-3.6 5.22-1.13 15.12-3.62 22-5.53 6.87-1.91 18.57-5.74 26-8.51 7.43-2.76 18.9-7.55 25.5-10.63 6.6-3.09 16.5-8.12 22-11.19 5.5-3.06 15.18-9.02 21.5-13.24 6.32-4.22 14.87-10.38 19-13.7 4.12-3.32 7.72-6.05 8-6.07 0.28-0.02 1.51 2.33 2.74 5.23 1.23 2.9 4.86 9.32 8.06 14.27 3.21 4.95 8.73 12.33 12.27 16.41 3.53 4.08 9.8 10.29 13.93 13.82 4.12 3.52 9.97 8.04 13 10.04 3.03 2 9.1 5.55 13.5 7.89 4.4 2.34 12.84 5.84 18.75 7.79 5.91 1.95 14.91 4.25 20 5.11 7.84 1.32 26.43 1.65 121.75 2.15l112.5 0.59c13.18 12.36 21.5 19.3 27 23.39 5.5 4.1 14.72 10.18 20.5 13.52 5.78 3.35 14.78 7.98 20 10.3 5.22 2.32 14.45 5.87 20.5 7.89 6.05 2.03 16.4 4.78 23 6.12 6.6 1.34 16.72 2.95 22.5 3.58 6.33 0.7 17.46 0.93 28 0.59 9.62-0.31 21.78-1.29 27-2.17 5.22-0.89 13.78-2.69 19-4.01 5.22-1.31 14-4 19.5-5.97 5.5-1.97 15.4-6.23 22-9.45 6.6-3.23 16.72-8.99 22.5-12.8 5.78-3.81 14.55-10.32 19.5-14.46 4.95-4.14 13.08-11.76 18.06-16.93 4.98-5.17 12.23-13.68 16.11-18.9 3.88-5.22 8.99-12.65 11.36-16.5 2.36-3.85 7.11-12.85 10.53-20 3.43-7.15 7.81-17.72 9.73-23.5 1.93-5.78 4.65-15.68 6.05-22 1.4-6.33 3.08-15.33 3.73-20 0.66-4.68 1.18-16.6 1.17-26.5 0-11.63-0.6-21.89-1.67-29-0.91-6.05-2.95-16.18-4.51-22.5-1.57-6.33-4.52-16-6.56-21.5-2.04-5.5-5.87-14.5-8.51-20-2.65-5.5-7.36-14.05-10.48-19-3.12-4.95-8.2-12.38-11.31-16.5-3.1-4.13-8.01-10.09-10.92-13.25-2.9-3.16-5.28-6.2-5.28-6.75 0-0.55 2.42-4.71 5.37-9.25 2.96-4.54 7.96-12.75 11.13-18.25 3.16-5.5 8.44-15.4 11.75-22 3.3-6.6 8.81-18.75 12.24-27 3.43-8.25 8.52-21.97 11.32-30.5 2.8-8.53 6.86-22.7 9.04-31.5 2.17-8.8 5.1-22.75 6.5-31 1.4-8.25 3.3-22.2 4.22-31 1.11-10.55 1.68-24.69 1.68-41.5 0-16.81-0.57-30.95-1.68-41.5-0.92-8.8-2.81-22.75-4.21-31-1.39-8.25-4.57-23.1-7.05-33-2.49-9.9-7-25.2-10.03-34-3.03-8.8-8.16-22.19-11.39-29.75-3.24-7.56-8.31-18.59-11.27-24.5-2.96-5.91-7.95-15.25-11.1-20.75-3.14-5.5-10.36-16.97-16.04-25.5-5.68-8.53-14.08-20.29-18.66-26.14-4.57-5.85-12.87-15.75-18.44-22-5.57-6.25-15.26-16.31-21.54-22.36-6.28-6.05-15.9-14.76-21.38-19.36-5.48-4.6-15.36-12.4-21.96-17.35-6.6-4.94-17.18-12.26-23.5-16.27-6.32-4-17.8-10.8-25.5-15.11-7.7-4.3-21.2-11.05-30-14.99-8.8-3.94-21.74-9.25-28.75-11.8-7.01-2.54-18.94-6.48-26.5-8.75-7.56-2.28-20.5-5.65-28.75-7.51-8.25-1.85-22.65-4.47-32-5.82-9.35-1.35-23.07-2.92-30.5-3.5-7.43-0.57-22.72-0.96-34-0.87-11.28 0.1-22.53 0.33-25 0.51z"/>
		<path id="Path 1" fill-rule="evenodd" class="s1" d="m2465.5 1056.66c9.35 0.27 22.63 1.32 29.5 2.33 6.88 1.02 17 2.99 22.5 4.4 5.5 1.4 14.5 4.08 20 5.95 5.5 1.87 14.72 5.48 20.5 8.02 5.78 2.53 16.13 7.88 23.01 11.87 6.87 4 17.67 11.15 24 15.88 6.32 4.74 16.18 13.07 21.91 18.5 5.72 5.44 14.19 14.39 18.81 19.89 4.63 5.5 12.01 15.4 16.41 22 4.39 6.6 10.66 17.29 19.86 35.5l-4.5 2c-2.47 1.1-4.72 2-5 2-0.28 0-5.9 2.25-12.5 5-6.6 2.75-12.22 5-12.5 5-0.28 0-3.03-4.84-6.12-10.75-3.09-5.91-7.43-13.45-9.66-16.75-2.22-3.3-6.3-8.93-9.05-12.5-2.76-3.58-7.98-9.84-11.6-13.92-3.61-4.09-11.52-11.66-17.57-16.83-6.05-5.18-15.5-12.39-21-16.04-5.5-3.64-15.18-9.23-21.5-12.41-6.32-3.19-15.78-7.33-21-9.22-5.22-1.89-12.65-4.34-16.5-5.45-3.85-1.12-11.5-2.93-17-4.04-5.5-1.11-16.07-2.51-23.5-3.12-7.43-0.61-18.45-0.82-24.5-0.46-6.05 0.36-15.5 1.31-21 2.11-5.5 0.81-14.28 2.55-19.5 3.87-5.22 1.32-13.55 3.83-18.5 5.58-4.95 1.75-12.82 4.85-17.5 6.9-4.68 2.05-13.04 6.38-18.59 9.63-5.55 3.24-11.4 6.94-13 8.21-1.6 1.27-2.23 2.09-1.41 1.81 0.82-0.27 7.13-2.35 14-4.61 6.88-2.26 17.68-5.05 24-6.19 9.09-1.65 15.91-2.11 32.5-2.19 16.17-0.08 23.53 0.32 32 1.74 6.05 1.02 15.61 3.15 21.25 4.74 5.64 1.59 15.76 5.26 22.5 8.15 6.74 2.89 16.3 7.69 21.25 10.66 4.95 2.98 12.15 7.75 16 10.61 3.85 2.86 10.15 7.99 14 11.41 3.85 3.42 10.5 10.12 14.78 14.89 4.28 4.77 10.85 13.17 14.59 18.67 3.75 5.5 8.87 13.82 11.37 18.5 2.5 4.67 6.16 12.55 8.13 17.5 1.97 4.95 3.58 9.67 3.58 10.5-0.01 0.82-3.02 3.53-6.69 6-3.67 2.47-10.4 7.31-14.97 10.75-4.56 3.44-8.63 6.27-9.04 6.28-0.41 0.02-2.26-4.37-4.11-9.75-1.85-5.38-5.62-14.28-8.38-19.78-2.76-5.5-7.75-14.05-11.1-19-3.51-5.18-10.99-13.9-17.63-20.53-6.54-6.55-15.43-14.19-20.53-17.66-4.95-3.36-13.5-8.36-19-11.11-5.5-2.75-14.05-6.36-19-8.04-4.95-1.68-13.72-4.05-19.5-5.28-8.68-1.85-13.62-2.23-28.5-2.22-14.47 0.02-19.96 0.44-28 2.14-5.5 1.17-13.6 3.31-18 4.76-4.4 1.44-12.72 4.86-18.5 7.59-5.78 2.74-14.78 7.82-20 11.3-5.22 3.48-13.73 10.31-18.9 15.19-5.16 4.87-12.94 13.58-17.28 19.36-4.59 6.1-10.38 15.53-13.84 22.5-3.27 6.6-7.26 16.05-8.87 21-1.61 4.95-3.96 14.17-5.22 20.5-1.89 9.48-2.26 14.22-2.08 27 0.12 8.53 0.32 17.01 0.69 22.21l-14 2.89c-7.7 1.59-17.82 3.99-22.5 5.34-4.68 1.35-8.79 2.14-9.14 1.76-0.35-0.39-1.13-5.65-1.75-11.7-0.61-6.05-1.11-17.75-1.11-26 0-8.25 0.66-20.63 1.47-27.5 0.8-6.88 2.39-17 3.53-22.5 1.14-5.5 3.45-14.72 5.13-20.5 1.68-5.78 5.07-15.45 7.54-21.5 2.48-6.05 6.81-15.5 9.65-21 2.83-5.5 9.04-15.85 13.79-23 4.76-7.15 12.9-17.95 18.1-24 5.2-6.05 12.56-13.93 16.37-17.51 3.81-3.58 11.2-9.93 16.42-14.13 5.22-4.19 13.78-10.41 19-13.82 5.22-3.42 14-8.61 19.5-11.55 5.5-2.93 14.05-7.01 19-9.05 4.95-2.04 12.82-5.02 17.5-6.61 4.68-1.59 12.78-3.99 18-5.32 5.22-1.33 14-3.16 19.5-4.06 5.5-0.89 14.95-2 21-2.46 6.05-0.46 18.65-0.61 28-0.33zm-1893.5 121.82c13.68 0.3 20.72 0.93 27 2.39 4.67 1.08 12.55 3.41 17.5 5.17 4.95 1.75 12.15 4.77 16 6.7 3.85 1.92 10.6 5.84 15 8.7 4.4 2.86 11.35 8.1 15.44 11.63 4.1 3.54 10.85 10.54 15 15.56 4.16 5.02 9.8 12.9 12.53 17.5 2.73 4.6 6.72 12.42 8.87 17.37 2.14 4.95 5.2 14.17 6.8 20.5 1.6 6.32 3.46 16.76 4.14 23.19 0.67 6.43 0.99 11.89 0.72 12.13-0.27 0.23-5 0.06-10.5-0.4-5.5-0.45-28.23-0.84-50.5-0.86-22.27-0.01-45.79 0.41-52.25 0.96-6.46 0.54-15.69 1.86-20.5 2.94-4.81 1.07-10.55 2.57-16.75 4.72l-10.5-9.51c-5.77-5.23-13.88-12.19-18-15.48-4.12-3.28-13.13-9.69-20-14.23-6.87-4.54-17-10.74-22.5-13.77-5.5-3.04-15.63-7.96-22.5-10.95-6.87-2.98-14.92-6.28-17.88-7.33-2.96-1.05-5.58-2.36-5.82-2.91-0.24-0.55 1.02-3.47 2.82-6.5 1.79-3.03 5.6-8.65 8.47-12.5 2.86-3.85 9.41-11.09 14.56-16.09 5.54-5.39 13.84-12.02 20.35-16.27 6.05-3.94 15.05-8.94 20-11.1 4.95-2.15 13.05-5.1 18-6.54 4.95-1.44 12.83-3.25 17.5-4.03 5.98-0.99 13.98-1.29 27-0.99zm816.5 107.67c2.2-0.06 8.16 0.33 13.25 0.87 5.09 0.54 12.96 2.16 17.5 3.6 4.54 1.44 10.95 3.97 14.25 5.63 3.3 1.67 8.7 4.86 12 7.1 3.3 2.24 8.94 7.01 12.54 10.61 3.6 3.6 8.43 9.35 10.75 12.79 2.32 3.44 4.19 6.59 4.16 7-0.03 0.41-3.74 3.07-8.25 5.91-4.51 2.83-12.65 9.36-18.09 14.5-5.44 5.14-12.74 13.16-16.23 17.84-3.49 4.67-8.56 12.78-11.27 18-2.71 5.22-6.35 13.78-8.1 19-1.74 5.22-3.36 9.84-3.59 10.25-0.23 0.41-5.03-3.29-10.67-8.22-5.64-4.93-15.2-12.82-21.25-17.53-6.05-4.71-16.63-12.3-23.5-16.88-6.88-4.57-16.78-10.81-22-13.86-5.22-3.06-13.89-7.74-19.26-10.41-5.37-2.67-9.75-5.41-9.75-6.1 0.01-0.69 1.83-4.74 4.06-9 2.23-4.26 5.93-10.22 8.23-13.25 2.3-3.03 6.89-8.13 10.2-11.34 3.31-3.22 9.39-8.06 13.52-10.77 4.13-2.71 10.65-6.24 14.5-7.85 3.85-1.61 9.92-3.68 13.5-4.6 3.58-0.92 9.42-2.01 13-2.42 3.58-0.42 8.3-0.81 10.5-0.87zm612.75 747.97c0.41-0.06 4.25 3.37 8.53 7.63 4.27 4.26 11.92 10.68 16.99 14.25 5.07 3.57 14.51 9.53 20.98 13.24 6.46 3.71 18.5 9.84 26.75 13.63 8.25 3.78 19.39 8.29 24.75 10.01 5.36 1.71 13.13 3.68 17.26 4.37 4.13 0.69 7.51 1.7 7.5 2.25-0.01 0.55-3.08 4.6-6.83 9-3.75 4.4-9.49 10.29-12.75 13.1-3.26 2.8-8.63 6.93-11.93 9.16-3.3 2.24-9.38 5.88-13.5 8.1-4.13 2.22-12.22 5.62-18 7.55-5.78 1.93-15 4.24-20.5 5.15-7.73 1.26-13.87 1.51-27 1.09-9.4-0.31-19.9-1.22-23.5-2.05-3.58-0.82-9.99-2.64-14.25-4.05-4.26-1.4-11.46-4.41-16-6.69-4.54-2.28-11.4-6.19-15.25-8.7-3.85-2.51-11.95-9.45-18-15.43-10.51-10.39-10.91-10.94-9-12.32 1.1-0.79 8.08-5.41 15.5-10.26 7.42-4.84 18.22-12.55 24-17.13 5.78-4.57 17.92-15.84 27-25.05 9.08-9.2 16.84-16.78 17.25-16.85zm538.22 29.9c0.54-0.01 1.77 2.34 2.74 5.23 0.97 2.89 4.39 9.3 7.59 14.25 3.21 4.95 8.73 12.33 12.27 16.41 3.53 4.08 9.8 10.29 13.93 13.82 4.12 3.52 9.97 8.04 13 10.04 3.03 2 9.1 5.55 13.5 7.89 4.4 2.34 12.84 5.84 18.75 7.79 5.91 1.95 14.91 4.22 20 5.05 6.45 1.04 16.89 1.49 34.5 1.5 13.89 0 25.44 0.34 25.67 0.75 0.23 0.41-1.37 5.02-3.55 10.25-2.19 5.22-6.77 14.17-10.17 19.88-3.41 5.7-10.02 15.13-14.7 20.95-4.68 5.82-12.78 14.37-18 19-5.22 4.63-14.45 11.72-20.5 15.75-6.05 4.02-15.72 9.54-21.5 12.26-5.78 2.71-14.78 6.3-20 7.97-5.22 1.67-14.22 4.07-20 5.33-9.29 2.03-13.21 2.3-34 2.3-20.79 0-24.71-0.27-34-2.3-5.78-1.26-14.78-3.66-20-5.32-5.22-1.67-14.45-5.37-20.5-8.23-6.05-2.85-15.5-8.15-21-11.76-5.5-3.62-14.05-10.14-19-14.51-4.95-4.36-12.29-11.73-16.32-16.38-4.02-4.64-9.86-12.26-12.97-16.94-3.11-4.68-8.14-13.45-11.18-19.5-3.04-6.05-6.88-14.72-8.53-19.25-1.65-4.54-2.78-8.46-2.5-8.72 0.28-0.25 3.2-0.94 6.5-1.53 3.3-0.59 10.28-2 15.5-3.13 5.22-1.13 15.12-3.62 22-5.53 6.87-1.91 18.57-5.74 26-8.51 7.43-2.76 18.9-7.55 25.5-10.63 6.6-3.09 16.5-8.12 22-11.19 5.5-3.06 15.18-9.02 21.5-13.24 6.32-4.22 14.87-10.38 19-13.7 4.12-3.32 7.94-6.04 8.47-6.05zm-1606.7 48.96c0.4-0.02 5.46 2.16 11.23 4.84 5.77 2.67 13.36 5.95 23.19 9.68l-0.62 5.5c-0.35 3.02-1.8 10-3.24 15.5-1.43 5.5-4.33 14.5-6.44 20-2.12 5.5-5.93 14.05-8.48 19-2.55 4.95-6.66 12.15-9.15 16-2.48 3.85-7.34 10.6-10.79 15-3.45 4.4-10.48 12.15-15.62 17.22-5.14 5.07-12.27 11.55-15.85 14.41-3.58 2.86-10.33 7.7-15 10.74-4.67 3.05-13.23 7.9-19 10.78-5.77 2.89-15.9 7.06-22.5 9.27-6.6 2.22-16.05 4.91-21 5.98-4.95 1.07-13.27 2.48-18.5 3.13-5.86 0.73-16.77 1-28.5 0.7-13.48-0.35-22.34-1.12-30.5-2.66-6.33-1.19-17.58-4.19-25-6.67-7.42-2.48-18.45-6.97-24.5-9.98-6.05-3.01-10.55-5.08-10-4.6 0.55 0.48 4.15 3.51 8 6.72 3.85 3.22 11.95 9.09 18 13.06 6.05 3.97 16.4 9.9 23 13.19 6.6 3.28 16.5 7.64 22 9.68 5.5 2.05 14.95 4.98 21 6.53 6.05 1.54 15.5 3.62 21 4.63 7.85 1.43 15.06 1.83 33.5 1.83 18.46 0 25.64-0.4 33.5-1.83 5.5-1.01 14.95-3.08 21-4.61 6.05-1.53 15.5-4.46 21-6.52 5.5-2.06 14.5-5.9 20-8.54 5.5-2.64 13.83-7.14 18.5-9.99 4.67-2.86 12.77-8.41 18-12.33 5.23-3.93 14.45-11.92 20.5-17.76 6.05-5.85 14.67-15.3 19.15-21.01 4.49-5.7 10.72-14.42 13.85-19.37 3.13-4.95 8.3-14.4 11.48-21 3.19-6.6 7.01-15.38 8.49-19.5 1.48-4.13 4.2-12.68 6.04-19 2.15-7.41 3.81-11.47 4.66-11.41 0.73 0.05 7.18 0.85 14.33 1.79 7.15 0.93 14.91 1.9 21.5 2.62l-1.51 6.25c-0.83 3.44-2.66 10.3-4.07 15.25-1.41 4.95-4.15 13.27-6.1 18.5-1.95 5.22-5.88 14.45-8.75 20.5-2.87 6.05-8.05 15.72-11.53 21.5-3.48 5.77-10.19 15.68-14.91 22-4.73 6.32-14.23 17.29-21.11 24.37-6.89 7.08-17.02 16.5-22.52 20.93-5.5 4.43-14.95 11.3-21 15.27-6.05 3.96-14.83 9.26-19.5 11.77-4.67 2.51-13.79 6.83-20.25 9.61-6.46 2.78-17.49 6.8-24.5 8.94-7.01 2.14-17.48 4.85-23.25 6.02-5.77 1.16-15.9 2.79-22.5 3.61-6.71 0.83-20.16 1.48-30.5 1.48-10.24 0-23.86-0.66-30.5-1.47-6.6-0.82-16.5-2.41-22-3.54-5.5-1.13-14.73-3.42-20.5-5.09-5.77-1.67-15.23-4.88-21-7.14-5.77-2.26-16.12-6.99-23-10.51-6.87-3.52-17-9.35-22.5-12.95-5.5-3.61-13.83-9.52-18.5-13.14-4.67-3.61-14.08-11.99-20.89-18.62-6.82-6.62-16.01-16.54-20.43-22.04-4.41-5.5-11.29-14.95-15.28-21-4-6.05-10.14-16.63-13.66-23.5-3.51-6.88-8.24-17.23-10.51-23-2.26-5.78-5.66-15.9-7.55-22.5-1.89-6.6-4.27-16.36-5.31-21.69-1.03-5.34-1.64-9.9-1.37-10.16 0.27-0.25 3.88 0.15 8 0.9 4.49 0.8 15.21 1.37 26.75 1.4 14.3 0.04 19.43 0.37 19.97 1.3 0.39 0.69 2.55 5.75 4.78 11.25 2.24 5.5 6.49 14.05 9.45 19 2.96 4.95 7.94 12.37 11.07 16.5 3.14 4.12 10.16 11.77 15.62 17 5.45 5.22 13.95 12.26 18.89 15.62 4.93 3.37 13.24 8.27 18.47 10.88 5.23 2.61 14.67 6.48 21 8.6 6.33 2.11 16.79 4.75 23.25 5.87 7.72 1.33 16.21 2.03 24.75 2.03 8.54 0 17.03-0.7 24.75-2.03 6.46-1.12 16.92-3.76 23.25-5.87 6.33-2.12 15.55-5.88 20.5-8.35 4.95-2.48 13.27-7.35 18.5-10.82 6.14-4.07 13.76-10.57 21.54-18.37 7.03-7.05 14.56-15.8 18.12-21.06 3.35-4.95 7.94-12.71 10.21-17.25 2.27-4.54 5.52-11.74 7.21-16 1.7-4.26 4.14-12.03 5.44-17.25 1.29-5.23 2.63-11.75 2.97-14.5 0.34-2.75 0.83-6.01 1.08-7.25 0.25-1.24 0.79-2.26 1.2-2.27zm917.73-1140.42c4.31 0.31 8.92 1.41 12 2.85 2.75 1.28 6.52 3.86 8.37 5.71 1.85 1.86 4.32 5.18 5.5 7.38 1.99 3.73 2.13 5.46 2.13 26 0 20.54-0.14 22.27-2.13 26-1.18 2.2-4.21 5.91-6.75 8.25-3.47 3.19-6.43 4.79-11.87 6.4-5.62 1.66-8.71 2.01-13.75 1.55-3.58-0.33-8.53-1.28-11-2.12-2.47-0.83-6.64-3.33-9.25-5.55-2.61-2.22-4.97-4.93-5.25-6.03-0.28-1.1-0.95-2-1.5-2-0.66 0-1.09 26.42-1.5 153.5l-2.24 5c-1.24 2.75-4.16 6.89-6.5 9.2-2.34 2.31-6.29 5.09-8.76 6.18-2.47 1.09-7.65 2.52-11.5 3.18-3.85 0.66-11.05 0.98-16 0.72-6.16-0.33-10.89-1.22-15-2.83-3.3-1.29-7.8-3.75-10-5.46-2.2-1.71-5.35-5.29-10-12.83v-188.16l2.5-4.97c1.77-3.52 4.25-6.24 8.5-9.3 3.3-2.39 7.58-4.81 9.5-5.39 1.92-0.58 7.55-1.29 12.5-1.58 4.95-0.28 12.83 0.01 17.5 0.66 4.67 0.65 10.75 2.25 13.5 3.55 2.75 1.3 6.6 4.09 8.56 6.2 1.96 2.1 3.76 4.48 4 5.27 0.25 0.8 0.99 1.13 1.69 0.75 0.74-0.41 1.25-2.72 1.25-5.69 0-2.75 0.7-6.69 1.56-8.75 0.86-2.06 2.66-5.21 4-7 1.34-1.79 4.58-4.48 7.19-5.99 2.61-1.5 7.22-3.29 10.25-3.97 3.12-0.71 8.53-1.02 12.5-0.73zm-504.75 13.59c3.99-0.08 10.74 0.33 15 0.92 4.26 0.58 11.35 1.98 15.75 3.09 4.4 1.12 11.83 3.69 16.5 5.72 4.67 2.02 12.55 6.45 17.5 9.84 4.95 3.4 12.6 9.69 17 13.99 4.4 4.3 10.7 11.78 14 16.61 3.3 4.84 6.29 8.43 6.65 7.99 0.35-0.45 0.84-8.68 1.08-18.31 0.32-12.35 0.88-18.53 1.93-21 0.81-1.92 3.25-5.45 5.41-7.82 2.16-2.38 5.96-5.27 8.43-6.43 2.47-1.16 6.97-2.68 10-3.39 3.03-0.71 8.65-1.3 12.5-1.32 3.85-0.01 9.92 0.47 13.5 1.08 3.58 0.61 9.14 2.52 12.36 4.24 3.22 1.73 6.86 4.49 8.09 6.14 1.23 1.65 7.11 11.33 13.07 21.5 5.96 10.18 11.54 19.28 12.41 20.23 0.86 0.95 1.91 1.52 2.32 1.25 0.41-0.26 0.74-7.12 0.73-15.23-0.01-8.67 0.47-16.19 1.16-18.25 0.64-1.92 2.45-5.3 4.02-7.5 1.56-2.2 4.31-5 6.09-6.21 1.79-1.22 5.95-3.15 9.25-4.29 3.3-1.14 10.04-2.35 15-2.68 5.47-0.36 11.74-0.12 16 0.63 3.85 0.68 9.14 2.31 11.75 3.64 2.61 1.33 6.36 3.87 8.33 5.66 1.97 1.79 4.44 5.05 5.48 7.25 1.84 3.85 1.91 7.58 1.9 97.5 0 87.84-0.11 93.74-1.8 97.5-0.99 2.2-3.23 5.46-4.98 7.25-1.75 1.79-5.54 4.35-8.43 5.7-2.89 1.35-8.4 2.98-12.25 3.63-5.32 0.89-9.39 0.89-17 0.01-6.33-0.74-11.64-1.97-14.46-3.38-2.46-1.21-6.28-4.01-8.51-6.21-2.22-2.2-10.11-13.78-17.54-25.74-7.42-11.95-13.83-21.74-14.24-21.75-0.41 0-1.22 1.23-1.79 2.74-0.6 1.57-0.96 9.2-0.84 17.75 0.18 13.22-0.04 15.53-1.83 19.5-1.12 2.47-3.56 6.03-5.41 7.91-1.86 1.87-5.85 4.52-8.88 5.89-3.7 1.67-8.77 2.82-15.5 3.51-6.95 0.72-12.44 0.71-18-0.03-4.4-0.58-9.8-1.97-12-3.07-2.2-1.11-5.75-3.75-7.89-5.86-2.13-2.12-4.8-5.88-5.93-8.35-1.74-3.83-2.1-7.1-2.46-22-0.24-9.62-0.72-17.85-1.07-18.28-0.36-0.43-2.41 1.82-4.57 5-2.15 3.18-6.24 8.71-9.09 12.28-2.84 3.58-7.83 8.94-11.08 11.92-3.25 2.98-9.51 7.78-13.91 10.66-4.4 2.88-11.83 6.91-16.5 8.96-4.67 2.05-12.78 4.85-18 6.22-7.47 1.96-12.82 2.6-25 2.98-11.92 0.37-17.58 0.09-24.5-1.2-4.95-0.92-12.38-2.83-16.5-4.24-4.13-1.41-10.88-4.25-15-6.3-4.13-2.06-11.1-6.44-15.5-9.74-4.4-3.3-11.15-9.34-15-13.43-3.85-4.09-9.07-10.56-11.61-14.38-2.53-3.82-5.75-9.2-7.15-11.95-1.4-2.75-3.94-8.49-5.64-12.75-1.71-4.26-4.04-12.36-5.2-18-1.79-8.77-2.02-12.56-1.58-26.25 0.37-11.35 1.09-18.18 2.5-23.5 1.09-4.12 3.36-11.1 5.05-15.5 1.69-4.4 5.44-12.04 8.35-16.99 3.8-6.46 8.23-11.96 15.78-19.58 5.78-5.83 13.87-12.96 18-15.86 4.12-2.89 10.42-6.73 14-8.54 3.58-1.81 10.1-4.42 14.5-5.8 4.4-1.37 11.15-3.01 15-3.63 3.85-0.62 8.35-1.28 10-1.46 1.65-0.19 6.26-0.41 10.25-0.49zm339.25 1.16c10.71 0.27 12.01 0.53 18.88 3.74 4.7 2.2 8.9 5.08 11.58 7.95 2.3 2.48 4.83 6.3 5.62 8.5 1.19 3.35 1.42 18.99 1.42 188l-2.25 4.75c-1.24 2.61-4.39 6.91-7 9.55-3.37 3.41-6.2 5.22-9.75 6.25-3.35 0.97-9.79 1.45-19.5 1.45-12.21 0-15.64-0.36-21.75-2.25-5.78-1.79-8.22-3.21-12.04-7-3.09-3.07-5.4-6.52-6.51-9.75-1.58-4.61-1.7-12.17-1.2-189l2.17-4c1.19-2.2 3.89-5.64 6-7.64 2.1-2.01 5.74-4.6 8.08-5.75 2.34-1.16 6.61-2.78 9.5-3.6 3.64-1.04 8.77-1.41 16.75-1.2zm279 3.8c6.36-0.07 15.41 0.54 20.25 1.38 4.81 0.83 12.91 2.84 18 4.46 5.09 1.62 11.5 4.18 14.25 5.69 2.75 1.51 7.25 4.39 10 6.39 2.75 2.01 6.46 5.3 8.25 7.31 1.79 2.01 4.2 5.57 5.37 7.91 1.17 2.34 2.36 6.5 2.64 9.25 0.37 3.47-0.12 7.14-1.58 12-1.19 3.98-4.23 10.24-7.03 14.5-2.72 4.13-6.9 9.05-9.29 10.95-2.4 1.89-6.16 4.25-8.36 5.23-2.45 1.09-6.52 1.79-10.5 1.82-3.58 0.02-8.53-0.64-11-1.48-2.47-0.83-4.61-1.4-4.74-1.27-0.14 0.14 1.66 1.03 4 1.98 2.33 0.95 8.29 3.86 13.24 6.47 6.72 3.54 11.05 6.78 17.09 12.77 4.92 4.89 9.47 10.57 11.63 14.53 1.96 3.58 4.5 9.43 5.66 13 1.16 3.58 2.54 9.88 3.05 14 0.58 4.64 0.58 10.64 0 15.75-0.51 4.54-1.65 10.39-2.52 13-0.88 2.61-3.07 7.45-4.87 10.75-1.81 3.3-5.93 8.89-9.16 12.42-3.24 3.53-9.26 8.62-13.38 11.3-4.13 2.68-10.99 6.21-15.25 7.83-4.26 1.62-11.69 3.65-16.5 4.51-4.81 0.87-14.15 1.58-20.75 1.59-6.6 0.01-16.5-0.66-22-1.49-5.5-0.83-14.28-2.71-19.5-4.18-5.22-1.47-12.88-4.01-17-5.65-4.13-1.64-10.2-4.47-13.5-6.3-3.3-1.82-8.25-5.31-11-7.74-2.75-2.43-6-6.42-7.23-8.86-1.23-2.44-2.53-7.13-2.89-10.43-0.4-3.67-0.17-8.14 0.6-11.5 0.7-3.03 2.67-8.17 4.39-11.43 1.72-3.27 5.16-8.14 7.63-10.84 2.47-2.7 6.75-5.96 9.5-7.24 2.75-1.29 7.41-2.71 10.36-3.16 2.96-0.46 5.54-1.17 5.75-1.58 0.22-0.41-1.07-1.81-2.86-3.1-1.79-1.3-5.39-4.45-8-7-2.61-2.56-6.4-7.24-8.41-10.4-2.02-3.16-4.76-8.67-6.09-12.25-1.34-3.57-3.07-9.76-3.84-13.75-0.78-3.99-1.41-10.17-1.41-13.75 0-3.57 0.69-9.76 1.52-13.75 0.84-3.99 3.01-10.4 4.81-14.25 1.81-3.85 5.29-9.66 7.73-12.92 2.44-3.25 7.59-8.56 11.44-11.79 3.85-3.23 11.05-7.86 16-10.29 4.95-2.44 12.51-5.39 16.79-6.57 4.29-1.18 9.91-2.49 12.5-2.92 2.59-0.43 9.88-0.83 16.21-0.9zm-865.5 398.06c3.85-0.08 9.92 0.56 13.5 1.41 3.58 0.85 9.61 3.2 13.42 5.23 4.73 2.52 8.95 5.9 13.35 10.69 3.54 3.85 7.91 9.7 9.72 13 1.81 3.3 3.99 8.25 4.85 11 0.87 2.75 2.25 9.72 3.06 15.5 0.82 5.78 2.02 16.8 2.67 24.5 0.65 7.7 1.15 14.45 1.12 15-0.04 0.55-0.51 8.2-1.04 17-0.54 8.8-1.94 20.72-3.11 26.5-1.27 6.27-3.56 13.52-5.68 18-2.4 5.04-5.58 9.56-9.71 13.79-3.68 3.77-8.76 7.64-12.65 9.65-3.58 1.85-8.3 3.87-10.5 4.48-2.2 0.62-10.97 2.22-19.5 3.55-8.53 1.34-19.55 3.61-24.5 5.04-4.95 1.44-13.28 4.47-18.5 6.74-5.22 2.28-13.1 6.27-17.5 8.87-4.4 2.6-11.8 7.8-16.44 11.56-4.64 3.75-11.4 10.2-15.01 14.32-3.61 4.13-8.61 10.2-11.1 13.5-2.49 3.3-6.4 8.93-8.69 12.5-2.29 3.58-6.39 11.22-9.11 17-2.71 5.78-5.91 13.65-7.11 17.5-1.19 3.85-3.07 11.05-4.18 16-1.38 6.21-2.17 14.43-2.56 26.5-0.43 13.55-0.18 19.87 1.1 28 0.91 5.78 2.71 14.33 4.01 19 1.3 4.68 3.8 12.1 5.55 16.5 1.75 4.4 5.21 11.83 7.69 16.5 2.48 4.68 7.06 12.07 10.18 16.44 3.12 4.37 9.95 12.24 15.18 17.5 5.24 5.26 13.11 12.1 17.5 15.2 4.4 3.11 11.82 7.76 16.49 10.34 4.67 2.58 11.2 5.8 14.5 7.17 3.3 1.36 9.38 3.56 13.5 4.88 4.13 1.32 10.88 3.1 15 3.96 4.13 0.87 13.8 2.09 21.5 2.72 12.1 1 15.77 0.92 27-0.57 7.15-0.95 16.38-2.59 20.5-3.63 4.13-1.05 11.55-3.44 16.5-5.32 4.95-1.88 11.92-4.89 15.5-6.69 3.58-1.79 10.55-6 15.5-9.34 5.02-3.39 13.65-10.75 19.5-16.63 5.78-5.8 13.53-14.82 17.24-20.04 3.71-5.22 9.07-13.99 11.91-19.49 2.84-5.5 6.25-12.92 7.59-16.5 1.34-3.57 3.74-11.67 5.33-18 1.62-6.45 3.42-17.43 4.1-25 0.94-10.52 0.95-16.37 0.01-26.5-0.65-7.15-2.31-17.61-3.69-23.25-1.37-5.64-4.02-14.19-5.89-19-1.87-4.81-4.95-12.12-6.83-16.25-1.88-4.12-4.28-10.42-5.33-14-1.44-4.92-1.9-9.67-1.91-19.5 0-11.7 0.28-13.75 2.75-20.5 1.51-4.12 4.86-10.87 7.44-15 2.59-4.12 9.22-12.16 14.74-17.87 5.52-5.7 13.64-13.26 18.04-16.81 4.4-3.55 10.7-7.97 14-9.83 3.3-1.87 11.63-5.86 18.5-8.88 6.88-3.02 15.42-6.17 19-7.01 3.58-0.83 9.42-1.8 13-2.16 3.67-0.37 9.99-0.14 14.5 0.54 4.4 0.66 11.15 2.5 15 4.09 3.85 1.58 8.58 4.03 10.5 5.44 1.92 1.4 5.69 4.68 8.38 7.27 2.68 2.6 6.11 6.52 7.62 8.72 1.51 2.2 5.4 8.95 8.64 15 3.25 6.05 8.23 16.18 11.07 22.5 2.84 6.33 6.76 15.78 8.7 21 1.94 5.22 5.09 14.68 7 21 1.91 6.33 4.61 16.68 6 23 1.39 6.33 3.19 15.55 4 20.5 0.81 4.95 2.03 14.18 2.72 20.5 0.69 6.33 1.26 22.75 1.27 36.5 0.01 18.09-0.48 28.87-1.76 39-0.98 7.7-2.86 19.63-4.19 26.5-1.32 6.88-4.22 18.91-6.43 26.75-2.21 7.84-6.09 19.99-8.62 27-2.54 7.01-7.15 18.15-10.25 24.75-3.1 6.6-7.7 15.83-10.22 20.5-2.52 4.68-7.39 13-10.81 18.5-3.43 5.5-10.11 15.18-14.84 21.5-4.74 6.33-12.98 16.68-18.31 23-5.33 6.33-15.27 16.9-22.08 23.5-6.82 6.6-16.22 15.07-20.89 18.81-4.67 3.74-13.67 10.31-20 14.6-6.33 4.28-16.45 10.64-22.5 14.11-6.05 3.48-15.28 8.31-20.5 10.74-5.22 2.42-13.33 5.99-18 7.92-4.67 1.94-15.25 5.76-23.5 8.5-8.25 2.74-21.75 6.52-30 8.4-8.25 1.88-21.3 4.34-29 5.47-7.7 1.13-21.88 2.42-31.5 2.86-9.63 0.44-25.15 0.45-34.5 0.03-9.35-0.43-21.05-1.29-26-1.92-4.95-0.63-12.83-1.8-17.5-2.61-4.67-0.8-13.9-2.76-20.5-4.35-6.6-1.59-18.75-5.13-27-7.86-8.25-2.73-20.4-7.29-27-10.13-6.6-2.84-16.27-7.45-21.5-10.25-5.23-2.79-13.55-7.54-18.5-10.56-4.95-3.02-12.83-8.25-17.5-11.62-4.67-3.37-13.9-10.61-20.5-16.08-6.6-5.48-18.09-16.06-25.53-23.51-7.43-7.45-17.38-18.27-22.1-24.05-4.71-5.78-11.44-14.55-14.94-19.5-3.51-4.95-9.91-14.85-14.22-22-4.32-7.15-10.48-18.4-13.69-25-3.21-6.6-7.87-16.95-10.35-23-2.48-6.05-6.36-16.62-8.64-23.5-2.27-6.87-5.49-17.9-7.15-24.5-1.67-6.6-4.09-18.3-5.38-26-1.29-7.7-2.89-19.4-3.54-26-0.66-6.6-1.19-21.9-1.19-34 0-12.1 0.53-26.72 1.16-32.5 0.63-5.78 2.05-16.12 3.14-23 1.09-6.87 3.58-19.03 5.54-27 1.95-7.97 5.58-20.57 8.06-28 2.47-7.42 5.62-16.2 6.99-19.5 1.37-3.3 4.57-10.5 7.11-16 2.54-5.5 7.51-15.17 11.04-21.5 3.54-6.32 9.95-16.67 14.25-23 4.3-6.32 11.59-16.22 16.19-22 4.61-5.78 13.11-15.67 18.89-22 5.79-6.32 15.66-16.09 21.94-21.69 6.28-5.6 16.69-14.15 23.13-19 6.44-4.85 16.34-11.7 22-15.23 5.66-3.53 16.59-9.69 24.29-13.69 7.7-4 20.08-9.73 27.5-12.74 7.42-3 19.35-7.29 26.5-9.52 7.15-2.23 17.72-5.15 23.5-6.5 5.78-1.34 14.78-3.13 20-3.98 5.22-0.85 13.78-2.02 19-2.6 5.22-0.58 11.08-1.21 13-1.39 1.92-0.19 6.65-0.41 10.5-0.49zm-762.5 2.25c15.94 0.26 21.97 0.79 33 2.91 7.43 1.43 16.43 3.56 20 4.74 3.57 1.18 8.19 3 10.25 4.04 2.06 1.04 6.75 4.7 10.41 8.14 3.67 3.44 8.12 8.5 9.89 11.25 1.78 2.75 4.29 7.93 7.95 18l0.25 113.75c0.16 75 0.59 113.75 1.25 113.75 0.55 0 1.23-0.45 1.5-1 0.27-0.55 3.31-2.82 6.75-5.04 3.44-2.22 8.73-5.02 11.75-6.22 5.29-2.11 7.22-2.21 50.22-2.72 41.17-0.48 44.85-0.66 46.5-2.31 1.68-1.68 1.81-7.72 2.28-106.5 0.49-102.42 0.54-104.82 2.54-109.71 1.12-2.75 3.35-7.25 4.96-10 1.61-2.75 5.64-7.64 8.96-10.86 3.32-3.22 8.29-7.13 11.04-8.7 2.75-1.56 7.7-3.79 11-4.96 3.3-1.17 11.4-2.98 18-4.02 6.6-1.05 18.52-2.42 26.5-3.05 8.09-0.64 19.59-0.85 26-0.48 6.33 0.36 16 1.34 21.5 2.16 5.5 0.82 14.05 2.37 19 3.45 4.95 1.07 11.92 3.41 15.5 5.19 4.39 2.19 9.1 5.85 14.51 11.26 4.95 4.96 9.02 10.11 10.68 13.51 1.47 3.03 3.38 8.2 4.25 11.5 1.4 5.39 1.54 35.41 1.06 586l-2.4 6c-1.32 3.3-3.98 8.47-5.91 11.5-1.93 3.03-6.02 7.89-9.1 10.81-3.07 2.91-8.96 7.04-13.09 9.17-4.13 2.13-10.88 4.77-15 5.87-4.13 1.1-11.33 2.47-16 3.03-4.67 0.57-12.55 1.31-17.5 1.63-4.95 0.33-16.88 0.1-26.5-0.5-9.63-0.61-23.58-1.98-31-3.04-7.42-1.07-15.98-2.66-19-3.55-3.02-0.89-8.18-3.03-11.46-4.77-3.28-1.73-8.91-6.11-12.5-9.73-3.6-3.62-7.97-9.25-9.73-12.5-1.75-3.26-3.89-8.62-4.75-11.92-1.37-5.23-1.58-17.48-1.61-95.5-0.02-49.22-0.37-91.07-1.53-96.5l-44.96-0.53c-42.54-0.51-45.31-0.65-51.46-2.69-3.79-1.25-9.74-4.47-22-13.28l-0.02 5.75c-0.01 3.16-0.47 8.9-1.02 12.75-0.58 4.04-2.4 9.96-4.31 14-1.84 3.9-5.75 9.66-8.82 13-3.03 3.3-7.72 7.44-10.42 9.21-2.7 1.77-9.41 4.78-14.91 6.69-5.5 1.92-13.37 4.17-17.5 5-4.12 0.84-11.55 2.04-16.5 2.68-5.69 0.74-16.53 0.97-29.5 0.63-15.36-0.4-22.88-1.05-30-2.59-5.23-1.13-14.45-3.64-20.5-5.57-6.24-1.99-13.38-5.08-16.5-7.14-3.03-1.99-7.75-6.28-10.5-9.54-2.75-3.25-5.78-7.37-6.73-9.14-0.94-1.78-2.74-6.15-6.27-16.23l-0.27-192.5c-0.18-125.61 0.07-195.63 0.74-201.5 0.77-6.89 1.86-10.76 4.62-16.5 2.61-5.43 5.57-9.48 10.76-14.67 5.35-5.36 9.04-8.04 14.65-10.65 4.13-1.91 12.45-4.68 18.5-6.15 6.05-1.47 15.95-3.3 22-4.05 7.03-0.88 18.04-1.26 30.5-1.06zm1571.5 1.09c16.39 0.27 24.68 0.86 32.5 2.33 5.78 1.08 12.97 2.89 16 4.03 3.03 1.13 8.2 3.79 11.5 5.91 3.3 2.12 8.85 6.98 12.33 10.79 3.48 3.81 7.6 9.63 9.15 12.93 1.55 3.3 3.34 8.47 3.98 11.5 0.87 4.1 1.08 57.29 0.82 209.5-0.31 189.62-0.46 204.74-2.1 214.5-0.98 5.78-3.3 16.35-5.16 23.5-1.86 7.15-4.79 16.83-6.5 21.5-1.72 4.68-5.19 13-7.72 18.5-2.54 5.5-7.26 14.5-10.5 20-3.24 5.5-8.68 13.91-12.1 18.69-3.41 4.77-8.9 11.92-12.2 15.88-3.3 3.96-11.18 12.2-17.52 18.31-6.34 6.12-16.29 14.72-22.13 19.12-5.84 4.4-16.4 11.46-23.48 15.69-7.08 4.23-17.15 9.7-22.37 12.15-5.22 2.46-15.12 6.55-22 9.11-6.87 2.55-18.35 6.17-25.5 8.04-7.15 1.86-18.63 4.33-25.5 5.47-6.87 1.14-17.9 2.57-24.5 3.18-7.03 0.65-21.11 0.88-34 0.56-15.5-0.39-25.25-1.14-33-2.54-6.05-1.09-14.15-2.71-18-3.6-3.85-0.89-10.83-2.78-15.5-4.19-4.67-1.42-12.55-4.16-17.5-6.1-4.95-1.94-14.4-6.22-21-9.52-6.6-3.31-16.5-8.93-22-12.5-5.5-3.57-13.83-9.47-18.5-13.11-4.67-3.64-11.87-9.72-16-13.51-4.12-3.8-11.02-10.78-15.33-15.52-4.31-4.73-10.86-12.66-14.57-17.61-3.7-4.95-8.76-12.15-11.24-16-2.48-3.85-6.81-11.28-9.61-16.5-2.81-5.22-6.98-13.78-9.26-19-2.28-5.22-5.72-14.22-7.65-20-1.92-5.78-4.56-15-5.85-20.5-1.29-5.5-3.15-14.72-4.12-20.5-1.58-9.42-1.8-20.55-2.13-108.5-0.33-87.62-0.19-98.74 1.26-105 0.89-3.85 3.04-9.7 4.77-13 1.74-3.3 6.1-8.95 9.69-12.55 4.77-4.78 8.84-7.68 15.04-10.72 7.2-3.53 10.94-4.59 24.5-6.94 14.51-2.51 18.23-2.77 40-2.75 21.64 0.02 25.52 0.29 39.5 2.76 12.63 2.23 17.03 3.47 23.75 6.72 5.97 2.88 9.98 5.72 14.5 10.28 3.44 3.47 7.67 8.98 9.4 12.25 1.74 3.27 3.97 8.42 4.96 11.45 1.68 5.11 1.83 12.03 2.13 97.5 0.29 79.56 0.54 92.81 1.9 98 0.86 3.3 2.98 8.93 4.71 12.5 2.11 4.37 5.52 8.88 10.4 13.75 5.15 5.16 9.34 8.27 14.5 10.76 3.99 1.94 10.63 4.23 14.75 5.1 5.23 1.11 10.22 1.43 16.5 1.04 4.95-0.3 12.6-1.28 17-2.17 4.43-0.9 12.02-3.54 17-5.91 4.95-2.35 11.81-6.37 15.25-8.92 3.44-2.56 8.41-7.24 11.05-10.4 2.63-3.16 6.2-8.67 7.93-12.25 1.73-3.57 3.62-9.42 4.2-13 0.71-4.41 1.06-68.04 1.06-197.5 0-170.64 0.17-191.64 1.58-197 0.86-3.3 2.78-8.47 4.25-11.5 1.62-3.33 5.84-8.7 10.68-13.62 6.14-6.22 9.75-8.95 15.5-11.72 5.12-2.45 11-4.23 18.5-5.6 6.05-1.09 15.28-2.42 20.5-2.95 5.22-0.53 19.4-0.8 31.5-0.6zm-326.5 1.09c11.28 0.24 25.22 1.12 31 1.95 5.78 0.82 13.2 2.2 16.5 3.06 3.3 0.86 8.23 2.76 10.95 4.22 2.72 1.47 7.63 5.14 10.92 8.17 3.29 3.03 7.72 8.2 9.85 11.5 2.13 3.3 4.93 9.38 6.21 13.5 1.29 4.13 3.17 12.22 4.19 18 1.45 8.27 1.84 15.59 1.83 34.5-0.01 14.51-0.52 27.16-1.29 32-0.7 4.4-2.58 12.28-4.18 17.5-1.6 5.22-4.62 12.37-6.7 15.87-2.08 3.5-6.5 8.9-9.82 12-3.32 3.1-8.27 6.85-11 8.34-2.73 1.5-9.24 3.82-14.46 5.16-5.22 1.34-14 3.02-19.5 3.72-5.59 0.72-19.93 1.28-32.5 1.28-12.37-0.01-26.55-0.54-31.5-1.18-4.95-0.63-12.6-2.07-17-3.18-4.4-1.11-10.92-3.46-14.5-5.23-3.8-1.87-9.34-5.92-13.34-9.74-3.76-3.6-8.25-8.79-9.97-11.54-1.72-2.75-4.12-8.15-5.33-12-1.22-3.85-3.03-11.72-4.02-17.5-1.42-8.18-1.81-15.8-1.81-34.5 0.01-19.89 0.39-26.31 2.21-37.5 1.2-7.42 2.91-15.53 3.78-18 0.88-2.47 2.87-6.75 4.44-9.5 1.57-2.75 6.16-8.17 10.2-12.05 4.9-4.71 9.66-8.17 14.34-10.4 3.85-1.84 11.28-4.23 16.5-5.3 5.22-1.08 14.9-2.33 21.5-2.78 6.6-0.45 21.22-0.62 32.5-0.37zm1276.5 4.76c194.11 0.13 202.21 0.21 207.5 2 3.03 1.02 7.3 2.77 9.5 3.88 2.2 1.12 6.25 3.8 9 5.97 2.75 2.18 6.93 6.28 9.29 9.12 2.36 2.84 5.61 7.87 7.24 11.17 1.63 3.3 3.87 9.6 4.98 14 1.11 4.4 2.5 11.83 3.08 16.5 0.59 4.68 1.09 17.05 1.13 27.5 0.04 14.39-0.45 22.28-2.01 32.5-1.13 7.43-3.2 17.1-4.59 21.5-1.6 5.08-4.31 10.56-7.41 15-2.68 3.85-6.9 8.8-9.37 11-2.47 2.2-7.61 5.64-11.41 7.64-3.81 2-9.29 4.14-12.18 4.75-3.7 0.78-47.05 1.11-147.25 1.11-78.1 0-142.68 0.22-143.5 0.5-0.82 0.28-1.5 0.95-1.5 1.5 0 0.55 1.52 2.91 3.38 5.25 1.86 2.34 4.56 6.61 6 9.5 1.44 2.89 3.29 8.06 4.11 11.5 1.05 4.44 1.48 12.03 1.48 26.25 0 14.57 0.34 20.47 1.26 21.73 1.19 1.62 7.84 1.75 203.27 2.27l6.5 2.2c3.57 1.21 9.2 3.96 12.5 6.1 3.3 2.14 8.29 6.32 11.09 9.3 2.81 2.97 6.52 8.21 8.25 11.65 1.74 3.44 3.82 9.06 4.63 12.5 0.8 3.44 2.22 11.43 3.15 17.75 1.14 7.75 1.7 18.02 1.71 31.5 0.01 15.26-0.48 23.32-2.08 34-1.15 7.7-2.87 16.03-3.83 18.5-0.95 2.47-3.8 7.62-6.33 11.43-2.52 3.81-6.62 8.65-9.09 10.75-2.47 2.1-7.43 5.37-11 7.28-3.57 1.91-9.65 4.16-13.5 4.99-6 1.31-21.08 1.53-105.75 1.54-97.74 0.01-98.76 0.03-99.75 2.01-0.59 1.19-0.9 10.21-0.5 42.5l138 0.5c130.64 0.48 138.29 0.6 143.5 2.35 3.03 1.01 8.14 3.26 11.37 5 3.22 1.73 8.67 6.08 12.1 9.65 3.44 3.58 7.61 9.2 9.29 12.5 1.67 3.3 3.8 8.93 4.73 12.5 0.92 3.58 2.59 11.22 3.71 17 1.35 7.01 2.2 16.49 2.54 28.5 0.3 10.63 0.04 22.09-0.63 28-0.63 5.5-2.26 14.28-3.63 19.5-1.37 5.22-4.24 13.1-6.37 17.5-2.68 5.54-5.84 10-10.24 14.5-3.51 3.57-9.07 7.93-12.37 9.69-3.3 1.75-8.7 3.89-12 4.75-5.35 1.4-28.03 1.57-210.5 1.57-182.47 0-205.15-0.17-210.5-1.57-3.3-0.86-8.7-3-12-4.75-3.3-1.75-9.15-6.33-13-10.18-4.45-4.45-8.19-9.38-10.26-13.51-1.79-3.57-3.92-9.65-4.73-13.5-1.27-6.03-1.48-34.57-1.49-205.5 0-132.2 0.34-200.67 1.03-205 0.57-3.57 2.4-9.42 4.06-13 1.66-3.57 4.75-8.75 6.87-11.5 2.11-2.75 6.34-6.8 9.4-9 3.06-2.2 5.46-4.49 5.34-5.1-0.12-0.6-2.69-3.1-5.72-5.55-3.03-2.46-7.2-6.69-9.27-9.41-2.07-2.72-5.06-7.64-6.63-10.94-1.57-3.3-3.59-9.37-4.48-13.5-0.89-4.12-2.29-12.79-3.12-19.25-0.82-6.46-1.5-19.17-1.5-28.25 0-9.42 0.64-20.9 1.5-26.75 0.82-5.64 2.23-13.62 3.12-17.75 0.9-4.12 2.63-9.75 3.87-12.5 1.23-2.75 4.32-7.81 6.87-11.25 2.92-3.93 7.33-8.12 11.89-11.29 3.99-2.77 9.72-5.96 12.75-7.07 3.03-1.12 7.97-2.4 11-2.85 3.03-0.45 96.4-0.75 207.5-0.68zm-540 6.13c20.49 0.31 32.16 0.97 43.5 2.47 8.53 1.13 20.22 2.99 26 4.13 5.78 1.14 15 3.19 20.5 4.56 5.5 1.38 15.4 4.25 22 6.38 6.6 2.14 16.5 5.83 22 8.2 5.5 2.37 15.99 7.9 23.3 12.29 7.32 4.39 18.8 12.07 25.5 17.07 6.71 5 15.06 11.75 18.56 15 3.49 3.25 8.42 9.06 10.96 12.91 2.53 3.85 5.86 10.49 7.39 14.75 2.08 5.78 2.79 9.6 2.8 15 0 3.99-0.91 12.2-2.02 18.25-1.11 6.05-2.95 14.38-4.1 18.5-1.14 4.13-4.25 12-6.89 17.5-2.65 5.5-7.72 14.05-11.27 19-3.55 4.95-10.03 12.38-14.41 16.5-4.37 4.13-11.3 9.81-15.39 12.64-4.09 2.83-9.68 6.34-12.43 7.8-2.75 1.45-8.6 3.82-13 5.25-6.18 2.02-10.17 2.63-17.5 2.7-8.23 0.09-10.24-0.24-15-2.47-3.03-1.41-13.76-8.83-23.85-16.49-10.09-7.66-23.59-17.66-30-22.21-6.41-4.56-13.45-9.15-15.65-10.21-2.2-1.05-8.05-2.42-13-3.03-4.95-0.61-14.4-1.1-21-1.1-6.6 0.01-16.39 0.72-21.75 1.57-5.36 0.85-13.46 2.71-18 4.14-4.54 1.42-10.72 3.95-13.75 5.62-3.03 1.67-7.75 4.94-10.5 7.27-2.75 2.32-5.9 5.86-9 11.47l3.19 3.28c1.75 1.8 6.92 5.5 11.5 8.24 4.57 2.73 16.63 8.87 26.81 13.65 10.18 4.78 24.8 11.36 32.5 14.63 7.7 3.27 27.05 10.79 43 16.72 15.95 5.93 29.9 10.96 31 11.18 1.1 0.22 2.45 0.79 3 1.27 0.55 0.47 7.75 3.69 16 7.15 8.25 3.46 22.87 10.27 32.5 15.12 9.62 4.85 21.55 11.74 26.5 15.29 4.95 3.56 12.57 9.75 16.93 13.75 4.36 4 10.93 10.87 14.59 15.27 3.67 4.4 9.08 11.6 12.01 16 2.94 4.4 7.49 12.5 10.1 18 2.62 5.5 5.92 13.6 7.35 18 1.43 4.4 3.27 10.93 4.1 14.5 0.82 3.58 2.16 10.78 2.97 16 0.81 5.22 1.76 16.93 2.11 26 0.41 10.6 0.21 20.62-0.58 28-0.67 6.33-2.36 16.68-3.75 23-1.39 6.33-3.67 14.88-5.06 19-1.4 4.13-4.98 12.68-7.96 19-2.98 6.33-8.73 16.45-12.78 22.5-4.05 6.05-11.01 15.16-15.45 20.25-4.44 5.09-12.24 12.88-17.33 17.31-5.09 4.43-14.88 11.83-21.75 16.45-6.88 4.62-17.9 11.08-24.5 14.36-6.6 3.28-16.61 7.8-22.25 10.05-5.64 2.24-15.54 5.64-22 7.54-6.46 1.9-17.38 4.58-24.25 5.96-6.88 1.38-18.13 3.29-25 4.24-9.22 1.27-19.58 1.74-39.5 1.76-23.41 0.03-28.76-0.26-40.25-2.19-7.29-1.23-16.29-3.35-20-4.71-3.71-1.37-9.18-4.18-12.15-6.25-2.98-2.08-7.31-6.02-9.63-8.77-2.33-2.75-5.35-7.25-6.73-10-1.38-2.75-3.77-9.5-5.32-15-2.55-9.07-2.8-11.44-2.75-25.5 0.03-9.24 0.7-19.34 1.65-25 0.87-5.22 2.91-13.55 4.52-18.5 1.62-4.95 4.85-12.6 7.19-17 2.35-4.4 5.88-10.44 7.87-13.42 1.98-2.98 5.44-7.03 7.69-9 2.24-1.97 6.74-5.01 10-6.77 3.25-1.75 8.61-3.94 11.91-4.86 5.04-1.41 10.58-1.65 34.5-1.53 21.9 0.12 30.58-0.21 37.5-1.41 5.26-0.92 11.91-2.93 16-4.85 3.85-1.8 8.97-5.05 11.37-7.22 2.4-2.17 4.99-5.18 5.75-6.69 0.76-1.51 1.38-4.89 1.37-7.5-0.01-2.84-0.94-6.76-2.33-9.75-1.27-2.75-3.86-6.29-5.74-7.88-1.88-1.58-6.35-4.33-9.92-6.11-3.57-1.78-12.13-5.5-19-8.28-6.88-2.78-24.2-8.97-38.5-13.76-14.3-4.78-35.45-12.2-47-16.48-11.55-4.27-25.72-9.66-31.5-11.97-5.78-2.31-17.93-7.49-27-11.52-9.07-4.02-21.9-10.32-28.5-14.01-6.6-3.68-15.55-9.23-19.9-12.34-4.34-3.11-11.54-8.82-16-12.7-4.45-3.88-11.84-11.53-16.42-17-4.58-5.47-10.51-13.77-13.19-18.45-2.68-4.67-6.76-12.55-9.08-17.5-2.31-4.95-5.94-14.29-8.06-20.75-2.12-6.46-4.83-17.26-6.04-24-1.69-9.51-2.18-16.16-2.18-29.75 0-13.53 0.49-20.22 2.15-29.5 1.18-6.6 3.95-17.62 6.15-24.5 2.2-6.87 6.9-18.35 10.45-25.5 3.55-7.15 9.07-16.91 12.28-21.68 3.21-4.77 8.62-12.2 12.01-16.5 3.39-4.3 11.26-12.79 17.5-18.86 6.23-6.07 14.48-13.55 18.33-16.61 3.85-3.06 12.4-9.09 19-13.4 6.6-4.31 17.4-10.63 24-14.04 6.6-3.42 17.18-8.26 23.5-10.75 6.32-2.5 16.68-6.1 23-8 6.32-1.91 17.35-4.67 24.5-6.14 7.15-1.47 17.05-3.3 22-4.06 6.65-1.03 16.31-1.28 37-0.97zm-200.75 447.54c3.99-0.02 10.74 0.69 15 1.57 4.26 0.89 11.57 2.94 16.25 4.57 4.68 1.62 13.45 5.38 19.5 8.35 6.05 2.97 14.04 7.66 17.75 10.44 4.44 3.31 8.14 7.18 10.8 11.29 2.22 3.44 4.99 9.18 6.14 12.75 1.24 3.87 2.28 10.35 2.56 16 0.41 8.15 0.1 10.92-2.23 19.5-1.49 5.5-5.85 17.65-9.69 27-3.85 9.35-8.05 19.25-9.34 22-1.3 2.75-4.13 7.7-6.31 11-2.17 3.3-6.59 8.41-9.81 11.35-3.23 2.95-8.57 6.61-11.87 8.14-3.3 1.52-8.47 3.34-11.5 4.04q-5.5 1.26-15 0.61c-7.66-0.52-10.76-1.24-16-3.72-3.57-1.69-9.2-5-12.5-7.35-3.3-2.36-8.41-6.94-11.36-10.18-3.02-3.32-7.05-9.38-9.23-13.89-2.13-4.4-5.03-12.05-6.43-17-1.41-4.95-3.44-14.4-4.52-21-1.08-6.6-1.95-16.05-1.94-21 0.01-4.95 0.47-12.15 1.02-16 0.56-3.85 1.73-9.92 2.61-13.5 0.88-3.57 3.23-10.55 5.21-15.5 2.78-6.94 4.88-10.35 9.13-14.87 3.03-3.23 7.54-7.05 10.01-8.49 2.47-1.44 6.75-3.4 9.5-4.35 2.89-1 8.06-1.74 12.25-1.76z"/>
		<path id="Path 2" class="s2" d="m1160.1 1486.63c-0.09 0.48-0.57 7.84-1.05 16.37-0.48 8.52-1.83 20.22-3 26-1.27 6.27-3.57 13.52-5.69 18-2.4 5.04-5.58 9.56-9.71 13.79-3.68 3.77-8.76 7.64-12.65 9.65-3.57 1.85-8.3 3.87-10.5 4.48-2.2 0.62-10.97 2.22-19.5 3.55-8.52 1.34-19.55 3.61-24.5 5.04-4.95 1.44-13.27 4.47-18.5 6.74-5.22 2.28-13.1 6.27-17.5 8.87-4.4 2.6-11.8 7.8-16.44 11.56-4.64 3.75-11.4 10.19-15.01 14.32-3.61 4.12-8.61 10.2-11.1 13.5-2.49 3.3-6.4 8.92-8.69 12.5-2.29 3.57-6.39 11.22-9.11 17-2.71 5.77-5.91 13.65-7.11 17.5-1.19 3.85-3.07 11.05-4.18 16-1.38 6.21-2.17 14.43-2.56 26.5-0.43 13.55-0.18 19.87 1.1 28 0.91 5.77 2.71 14.32 4.01 19 1.3 4.67 3.8 12.1 5.55 16.5 1.75 4.4 5.21 11.82 7.69 16.5 2.48 4.67 7.06 12.07 10.18 16.44 3.12 4.37 9.95 12.24 15.18 17.5 5.24 5.26 13.11 12.1 17.5 15.2 4.4 3.11 11.82 7.76 16.49 10.34 4.68 2.58 11.2 5.8 14.5 7.17 3.3 1.36 9.38 3.56 13.5 4.88 4.13 1.32 10.88 3.1 15 3.96 4.13 0.87 13.8 2.09 21.5 2.72 12.1 1 15.77 0.92 27-0.57 7.15-0.95 16.38-2.59 20.5-3.63 4.13-1.05 11.55-3.44 16.5-5.32 4.95-1.88 11.93-4.89 15.5-6.69 3.58-1.79 10.55-6 15.5-9.34 5.02-3.39 13.65-10.75 19.5-16.63 5.78-5.8 13.53-14.82 17.24-20.04 3.71-5.22 9.07-13.99 11.91-19.49 2.84-5.5 6.25-12.93 7.59-16.5 1.34-3.58 3.74-11.68 5.33-18 1.62-6.45 3.42-17.43 4.1-25 0.94-10.52 0.95-16.37 0.01-26.5-0.65-7.15-2.31-17.61-3.69-23.25-1.37-5.64-4.02-14.19-5.89-19-1.87-4.81-4.95-12.13-6.83-16.25-1.88-4.13-4.28-10.43-5.33-14-1.44-4.92-1.9-9.67-1.91-19.5 0-11.7 0.28-13.75 2.75-20.5 1.51-4.13 4.86-10.88 7.44-15 2.59-4.13 9.22-12.16 14.74-17.86 5.52-5.7 13.3-13.01 17.29-16.25l7.25-5.89c-8.91-6.74-15.77-11.57-21-15.1-5.22-3.52-12.42-8.27-16-10.55-3.57-2.28-15.72-8.66-27-14.18-11.27-5.52-24.77-11.61-30-13.53-5.22-1.91-14.9-5.15-21.5-7.19-6.6-2.03-12.95-3.92-14.11-4.19-1.16-0.27-2.19-0.1-2.29 0.37zm1155.4 93.4c-5.5 0.41-12.93 1.28-16.5 1.95-3.57 0.66-10.1 2.33-14.5 3.7-4.4 1.37-10.47 3.86-13.5 5.53-3.03 1.67-7.75 4.94-10.5 7.27-2.75 2.32-5.9 5.86-7 7.85l-2 3.62c4.94 5.08 10.11 8.78 14.69 11.52 4.57 2.73 16.63 8.87 26.81 13.65 10.18 4.77 23.45 10.81 29.5 13.42 6.05 2.6 25.63 10.24 43.5 16.97 17.88 6.72 32.61 12.06 32.75 11.86 0.14-0.2-4.14-4.76-9.52-10.12-6.32-6.32-12.22-13.51-16.75-20.43-3.84-5.87-11.03-17.3-15.98-25.41-4.95-8.1-10.9-17.69-13.21-21.32-2.32-3.62-6.9-9.85-10.18-13.84-3.28-3.99-6.33-7.18-6.78-7.1-0.46 0.08-5.33 0.48-10.83 0.88zm484.5 37.07c-2.47 0.48-6.88 1.67-9.78 2.64l-5.28 1.76c0.05 26.74 0.51 35.4 1.06 36.5 0.98 1.96 2 2 45.5 2h44.5c-0.89-4.26-2.57-8.43-4.31-12-2.06-4.23-5.61-8.96-10.18-13.57-5.28-5.32-9.11-8.09-15.51-11.24-4.68-2.3-11.76-4.86-15.75-5.69-3.99-0.82-11.41-1.45-16.5-1.39-5.09 0.06-11.28 0.5-13.75 0.99zm-1113 109.35c-4.12 0.68-9.75 1.97-12.5 2.87-2.75 0.89-5.22 1.45-5.5 1.25-0.28-0.21-0.38 23.54-0.23 52.78 0.23 44.62 0.53 54.11 1.85 59.15 0.87 3.3 3 8.92 4.73 12.5 2.11 4.37 5.52 8.88 10.4 13.75 5.15 5.16 9.34 8.27 14.5 10.76 3.99 1.94 10.63 4.23 14.75 5.1 5.23 1.11 10.22 1.43 16.5 1.04 4.95-0.3 12.6-1.28 17-2.17 4.43-0.9 12.02-3.54 17-5.91 4.95-2.35 11.81-6.37 15.25-8.92 3.44-2.56 8.41-7.24 11.05-10.4 2.63-3.16 6.2-8.68 7.93-12.25 1.73-3.58 3.62-9.43 4.2-13 0.58-3.58 1.06-19.89 1.06-36.25 0.01-23.15-0.27-29.74-1.24-29.72-0.69 0.02-7.1-3.65-14.25-8.15-7.15-4.49-17.5-10.9-23-14.24-5.5-3.35-13.83-7.74-18.5-9.76-4.67-2.02-11.42-4.44-15-5.37-3.58-0.93-10.1-2.33-14.5-3.1-4.4-0.77-11.6-1.36-16-1.31-4.4 0.06-11.37 0.66-15.5 1.35zm-1259.1 98.34c0.03 3.14-0.39 8.86-0.94 12.71-0.58 4.04-2.4 9.96-4.31 14-1.84 3.9-5.75 9.66-8.82 13-3.03 3.3-7.72 7.44-10.42 9.21-2.7 1.77-9.41 4.78-14.91 6.69-5.5 1.92-13.37 4.17-17.5 4.99-4.12 0.83-10.99 1.98-15.25 2.56-4.26 0.58-14.95 1.05-23.75 1.05-8.8 0-16 0.22-16 0.5 0 0.27 1.15 3.09 2.56 6.25 1.41 3.16 4.96 9.35 7.89 13.75 2.93 4.4 8.42 11.33 12.19 15.39 3.77 4.07 10.69 10.26 15.36 13.77 4.68 3.5 12.33 8.35 17 10.78 4.68 2.42 12.1 5.61 16.5 7.08 4.4 1.48 11.15 3.27 15 3.99 3.85 0.71 10.6 1.6 15 1.97 4.4 0.36 12.73 0.17 18.5-0.43 5.78-0.6 14.55-2.03 19.5-3.19 4.95-1.15 14.4-4.11 21-6.59 6.6-2.48 24.15-10.34 39-17.47 14.85-7.12 28.25-13.26 29.77-13.63l2.78-0.67c-0.22-61.23-0.57-80.35-0.93-82l-0.64-3c-87.56-1.04-90.33-1.18-96.48-3.22-3.66-1.21-9.92-4.56-14.33-7.67l-7.83-5.52zm2358 17.18c-0.81 1.38-1.04 8.06-0.78 22.25l0.38 20.27 160.5 0.5c-0.95-3.48-2.53-7.87-4.12-12-1.58-4.12-4.34-10.08-6.13-13.25-1.79-3.16-5.5-8.88-8.25-12.71l-5-6.96c-134.1-0.08-135.47-0.04-136.6 1.9z"/>
		<path id="Path 3" class="s0" d="m1337.5 1065.35c-2.75 0.71-6.35 2-8 2.87-1.65 0.87-5.18 3.54-7.86 5.93-3.09 2.77-5.98 6.71-7.96 10.85-2.38 4.98-3.21 8.26-3.53 14-0.34 6.01 0.04 8.89 1.93 14.5 1.77 5.27 3.6 8.32 7.39 12.35 3.13 3.33 7.47 6.53 11.51 8.5 5.88 2.86 7.35 3.15 16 3.15 8.06 0 10.29-0.38 14.52-2.44 2.75-1.34 7.5-4.94 10.55-8 3.81-3.83 6.28-7.43 7.91-11.56 1.3-3.3 2.57-8.92 2.83-12.5 0.32-4.41-0.06-8.27-1.19-12-0.91-3.02-3.11-7.73-4.88-10.46-1.77-2.74-5.47-6.67-8.22-8.75-2.75-2.08-7.03-4.44-9.5-5.24-2.47-0.81-7.2-1.69-10.5-1.97-3.41-0.29-8.16 0.04-11 0.77zm643 6.63c2.75 1.12 5.9 2.27 7 2.56 1.1 0.29 0.42-0.34-1.5-1.39-1.92-1.05-5.08-2.2-7-2.55-2.93-0.54-2.69-0.32 1.5 1.38z"/>
		<path id="Path 4" class="s1" d="m1103 1652.5c-3.58 0.72-8.75 2.08-11.5 3.01-2.75 0.93-7.92 3.21-11.5 5.07-3.58 1.85-9.42 5.76-13 8.69-3.58 2.92-8.69 8-11.36 11.27-2.67 3.28-6.35 8.66-8.18 11.96-1.84 3.3-4.52 9.6-5.97 14-1.74 5.26-2.84 11.25-3.22 17.5-0.35 5.71-0.08 12.69 0.67 17.5 0.69 4.4 2.55 11.38 4.13 15.5 1.59 4.13 5.11 11.1 7.83 15.5 2.72 4.4 8.24 11.33 12.27 15.4 4.03 4.07 10.03 9.22 13.33 11.44 3.3 2.22 8.7 5.25 12 6.73 3.3 1.48 9.26 3.42 13.25 4.31 4.02 0.9 11.59 1.61 17 1.6 5.36-0.01 12.67-0.63 16.25-1.38 3.58-0.74 9.42-2.54 13-3.98 3.58-1.45 8.97-4.09 12-5.88 3.02-1.78 9.77-7.52 15-12.74 7.63-7.63 10.43-11.27 14.18-18.5 2.58-4.95 5.62-12.38 6.76-16.5 1.15-4.13 2.36-10.42 2.69-14 0.34-3.58 0.12-10.33-0.5-15-0.61-4.67-2.17-11.65-3.46-15.5-1.29-3.85-4.1-10.34-6.26-14.43-2.15-4.08-6.41-10.38-9.46-14-3.05-3.61-8.23-8.74-11.5-11.39-3.27-2.65-8.65-6.33-11.95-8.18-3.3-1.85-8.47-4.27-11.5-5.37-3.03-1.1-8.2-2.49-11.5-3.07-3.3-0.59-9.83-1.03-14.5-0.97-4.67 0.05-11.42 0.69-15 1.41z"/>
	</g>
</svg>