<svg version="1.2" xmlns="http://www.w3.org/2000/svg" viewBox="0 0 3264 3264" width="3264" height="3264">
	<style>
		.s0 { opacity: 1;fill: #230023 } 
		.s1 { fill: #ffffff } 
		.s2 { fill: #ff73c7 } 
		.s3 { fill: #69ff8c } 
		.s4 { fill: #f2f572 } 
		.s5 { fill: #d46aff } 
		.s6 { fill: #6bb5ff } 
	</style>
	<g id="Background">
		<path id="Path 0" class="s0" d="m1334.5 925.11c-5.5 0.47-11.8 1.28-14 1.81-2.2 0.52-7.38 1.72-11.5 2.66-4.13 0.94-10.2 2.51-13.5 3.48-3.3 0.97-9.38 3.07-13.5 4.66-4.13 1.58-12 5.27-17.5 8.19-5.5 2.91-13.6 7.82-18 10.89-4.4 3.07-11.34 8.54-15.41 12.14-4.08 3.61-11.22 10.83-15.88 16.06-4.65 5.23-11.27 13.77-14.69 19-3.43 5.23-8.5 14.23-11.27 20-2.78 5.78-6.38 14.1-8.02 18.5-1.63 4.4-3.89 12.05-5.01 17-1.12 4.95-2.63 11.47-3.35 14.5-1.01 4.21-1.44 24.99-1.84 88.5l-0.53 83c-684.05 0.9-759.17 1.25-764 2.3-3.3 0.71-8.48 1.75-11.5 2.31-3.02 0.55-6.85 1.43-8.5 1.94-1.65 0.51-4.01 0.93-5.25 0.94-1.24 0-3.94 0.86-6 1.9-2.06 1.04-6.68 2.8-10.25 3.92-3.57 1.11-11 4.14-16.5 6.72-5.5 2.58-14.5 7.37-20 10.63-5.5 3.27-14.14 8.95-19.19 12.64-5.05 3.68-13.97 11.42-19.81 17.2-5.84 5.78-14.36 15.45-18.94 21.5-4.57 6.05-10.85 15.16-13.94 20.25-3.09 5.09-6.02 10.26-6.51 11.5-0.48 1.24-2.53 5.62-4.55 9.75-2.02 4.12-5.59 13.12-7.95 20-2.36 6.87-4.78 14.75-5.38 17.5-0.61 2.75-1.61 8.15-2.23 12-0.62 3.85-1.64 9.03-2.26 11.5-0.83 3.28-1.23 63.65-1.48 222-0.3 194.13-0.16 218.63 1.24 228 0.87 5.78 2.05 13.2 2.62 16.5 0.58 3.3 1.53 8.25 2.13 11 0.6 2.75 2.77 9.95 4.83 16 2.06 6.05 4.93 13.7 6.39 17 1.47 3.3 3.61 8.03 4.76 10.5 1.16 2.47 4.65 8.78 7.76 14 3.11 5.22 8.98 14 13.04 19.5 4.07 5.5 13.05 15.62 19.96 22.5 6.91 6.87 17.05 15.69 22.53 19.59 5.49 3.9 13.13 9.01 16.98 11.34 3.85 2.34 11.73 6.5 17.5 9.24 5.77 2.75 15.45 6.73 21.5 8.87 6.05 2.13 15.73 4.96 21.5 6.3 5.77 1.34 13.43 3.05 17 3.8 5.47 1.14 200.02 1.36 1222 1.36 1024.99 0 1216.68-0.21 1223-1.37 4.12-0.75 12.68-2.63 19-4.17 6.32-1.54 16-4.43 21.5-6.42 5.5-1.99 12.03-4.57 14.5-5.73 2.47-1.15 6.75-3.1 9.5-4.33 2.75-1.23 9.05-4.71 14-7.72 4.95-3.02 12.82-8.34 17.5-11.84 4.68-3.49 10.97-8.61 14-11.38 3.03-2.76 8.79-8.4 12.8-12.53 4.02-4.13 10.34-11.56 14.05-16.51 3.71-4.95 8.72-12.15 11.13-16 2.4-3.85 6.73-11.72 9.62-17.5 2.88-5.78 7.09-15.22 9.34-21 2.25-5.78 4.78-13.42 5.62-17 0.84-3.58 1.97-8.3 2.5-10.5 0.54-2.2 1.45-6.25 2.03-9 0.57-2.75 1.51-8.83 2.09-13.5 0.7-5.59 1.21-79.65 1.52-216.5 0.33-149.8 0.14-211.64-0.67-221-0.63-7.15-1.79-16.83-2.6-21.5-0.8-4.67-1.86-10.08-2.34-12-0.49-1.92-1.41-5.75-2.04-8.5-0.64-2.75-3.19-10.4-5.68-17-2.48-6.6-6.7-16.5-9.38-22-2.68-5.5-7.46-14.05-10.61-19-3.16-4.95-7.8-11.69-10.31-14.97-2.52-3.29-6.13-7.79-8.03-10-1.91-2.22-6.43-6.95-10.05-10.53-3.62-3.58-9.26-8.84-12.54-11.7-3.27-2.86-8.42-7-11.45-9.2-3.03-2.21-9.32-6.34-14-9.18-4.68-2.84-13.45-7.66-19.5-10.7-6.05-3.05-15.95-7.29-22-9.42-6.05-2.14-13.03-4.36-15.5-4.94-2.47-0.58-6.3-1.47-8.5-1.98-2.2-0.5-7.15-1.37-11-1.91-3.85-0.55-8.57-1.44-10.5-1.98-2.26-0.63-142.36-0.98-396.25-0.98-216.01-0.01-393.43-0.23-394.25-0.51-1.32-0.44-1.5-10.06-1.5-78.5 0-64.86-0.26-79.89-1.55-89.25-0.85-6.19-2.45-14.63-3.56-18.75-1.11-4.13-2.85-9.97-3.87-13-1.02-3.03-2.83-7.97-4.02-11-1.2-3.03-4.1-9.33-6.44-14-2.35-4.67-6.03-11.21-8.17-14.53-2.14-3.31-6.86-9.84-10.49-14.5-3.62-4.66-11.27-12.91-17-18.33-5.72-5.43-14.9-12.99-20.4-16.8-5.5-3.81-14.28-9.11-19.5-11.77-5.22-2.66-13.55-6.4-18.5-8.32-4.95-1.92-11.25-4.03-14-4.69-2.75-0.66-7.47-1.83-10.5-2.6-3.03-0.77-9.33-2.17-14-3.12-7.91-1.61-27.37-1.74-282.5-1.91-150.7-0.1-278.5 0.21-284 0.68z"/>
		<path id="Path 1" class="s1" d="m415.75 1098.64c-0.32 0.35-7.48 1-15.91 1.44-8.44 0.45-16.91 1.07-18.84 1.38-1.93 0.32-6.65 1.06-10.5 1.65-3.85 0.59-8.13 1.55-9.5 2.13-1.38 0.58-4.41 1.44-6.75 1.91-2.34 0.47-6.16 1.23-8.5 1.69-2.34 0.46-6.05 1.62-8.25 2.58-2.2 0.95-6.02 2.38-8.5 3.16-2.48 0.79-6.07 1.95-8 2.58-1.93 0.63-9.01 3.77-15.75 6.99-6.74 3.22-12.36 5.84-12.5 5.82-0.14-0.02-5.43 3.08-11.75 6.88-6.32 3.8-14.88 9.48-19 12.62-4.13 3.14-9.3 7.06-11.5 8.7-2.2 1.65-7.97 6.67-12.83 11.16-4.86 4.49-12.79 12.67-17.63 18.17-4.84 5.5-11.3 13.37-14.35 17.5-3.06 4.12-6.5 8.85-7.66 10.5-1.16 1.65-4.4 6.82-7.22 11.5-2.81 4.67-8.15 14.8-11.86 22.5-3.72 7.7-8.34 18.5-10.27 24-1.94 5.5-4.04 12.02-4.68 14.5-0.64 2.47-1.6 6.3-2.15 8.5-0.54 2.2-1.59 6.02-2.33 8.5-0.73 2.47-1.82 7.87-2.4 12-0.59 4.12-1.33 9.07-1.66 11-0.33 1.92-1.07 9.57-1.65 17q-1.06 13.51-1.06 268.5c0 165.7 0.36 259.73 1.03 268.5 0.57 7.42 1.49 16.87 2.05 21 0.56 4.12 1.29 8.85 1.64 10.5 0.34 1.65 1.31 5.7 2.16 9 0.84 3.3 1.91 7.57 2.38 9.5 0.47 1.92 1.53 5.97 2.36 9 0.83 3.02 3.13 10 5.13 15.5 1.99 5.5 6.7 16.3 10.47 24 3.77 7.7 9.41 18.05 12.53 23 3.13 4.95 7.78 11.86 10.34 15.36 2.56 3.49 7.1 9.34 10.08 13 2.97 3.65 7.92 9.32 11 12.6 3.07 3.28 9.63 9.74 14.58 14.34 4.95 4.61 13.95 12.11 20 16.67 6.05 4.57 14.6 10.45 19 13.08 4.4 2.63 10.25 6.19 13 7.91 2.75 1.73 10.85 5.67 18 8.77 7.15 3.1 17.73 7.27 23.5 9.26 5.77 2 12.52 4.1 15 4.67 2.48 0.57 6.3 1.47 8.5 1.99 2.2 0.53 5.8 1.34 8 1.8 2.2 0.46 6.48 1.32 9.5 1.91 3.02 0.59 7.64 1.31 10.25 1.61 3.32 0.37 4.75 0.98 4.75 2.03 0 1.33 138.07 1.5 1236.75 1.46 1103.45-0.03 1236.86-0.2 1237.75-1.55 0.64-0.97 3.88-1.88 9-2.54 4.4-0.56 8.45-1.28 9-1.59 0.55-0.32 3.25-0.98 6-1.47 2.75-0.49 6.8-1.3 9-1.8 2.2-0.49 5.8-1.34 8-1.88 2.2-0.53 10.3-3.18 18-5.88 7.7-2.71 17.82-6.8 22.5-9.1 4.68-2.31 8.72-4.17 9-4.14 0.28 0.03 6.67-3.67 14.22-8.23 7.55-4.55 17.67-11.21 22.5-14.78 4.82-3.57 13.05-10.24 18.28-14.8 5.22-4.57 12.87-12 17-16.53 4.12-4.52 9.55-10.68 12.05-13.69 2.5-3.02 5.2-6.44 6-7.6 0.8-1.17 3.46-4.77 5.92-8 2.46-3.24 6.77-9.71 9.57-14.38 2.81-4.68 6.71-11.65 8.68-15.5 1.97-3.85 5.17-10.38 7.11-14.5 1.94-4.13 4.66-10.88 6.05-15 1.39-4.13 3.45-9.98 4.57-13 1.13-3.03 2.06-6.4 2.06-7.5 0.01-1.1 0.42-3.35 0.91-5 0.49-1.65 1.59-5.48 2.43-8.5 0.85-3.03 1.84-7.08 2.2-9 0.35-1.93 1.06-6.65 1.57-10.5 0.51-3.85 1.46-13.98 2.11-22.5 0.86-11.35 1.17-82.91 1.16-267.5-0.01-184.22-0.33-256.03-1.19-267-0.65-8.25-1.58-18.15-2.07-22-0.49-3.85-1.19-8.8-1.56-11-0.37-2.2-1.37-6.48-2.21-9.5-0.85-3.03-1.95-6.85-2.44-8.5-0.49-1.65-0.9-4.01-0.91-5.25 0-1.24-0.85-4.16-1.87-6.5-1.02-2.34-3.24-8.3-4.93-13.25-1.7-4.95-4.51-11.93-6.25-15.5-1.74-3.58-4.37-8.98-5.84-12-1.47-3.03-5.34-10-8.59-15.5-3.25-5.5-7.06-11.62-8.47-13.59-1.41-1.98-4.56-6.25-7-9.5-2.44-3.25-8.13-10.19-12.65-15.41-4.52-5.23-11.07-12.25-14.56-15.61-3.49-3.37-10.63-9.57-15.85-13.8-5.22-4.22-11.07-8.95-13-10.51-1.93-1.55-9.35-6.39-16.5-10.74-7.15-4.35-19.97-11.14-28.5-15.1-8.53-3.95-16.18-7.2-17-7.23-0.82-0.02-3.3-0.67-5.5-1.44-2.2-0.78-6.14-2.34-8.75-3.49-2.61-1.14-5.76-2.09-7-2.09-1.24-0.01-3.6-0.42-5.25-0.91-1.65-0.49-5.47-1.58-8.5-2.43-3.03-0.84-8.2-1.99-11.5-2.56-3.3-0.57-7.8-1.3-10-1.62-2.2-0.32-9.85-1.05-17-1.62-8.52-0.68-147.29-1.19-402.5-1.48-214.22-0.24-390.96-0.2-392.75 0.09l-3.25 0.54c0 129.43 0.27 145.16 1.25 145.75 0.69 0.41 178.78 1.02 395.75 1.36 250.24 0.38 396.88 0.97 401 1.59 3.57 0.54 8.75 1.54 11.5 2.23 2.75 0.68 6.35 1.65 8 2.15 1.65 0.49 4.01 0.9 5.25 0.91 1.24 0 4.39 0.95 7 2.09 2.61 1.15 8.12 3.2 12.25 4.56 4.12 1.36 11.55 4.47 16.5 6.9 4.95 2.44 12.82 6.64 17.5 9.34 4.68 2.7 10.04 6.2 11.91 7.77 1.88 1.57 4.81 3.69 6.5 4.73 1.7 1.03 7.37 5.6 12.59 10.16 5.22 4.56 11.23 10.24 13.35 12.63 2.12 2.38 7.1 8.38 11.08 13.33 3.97 4.95 9.33 12.26 11.9 16.25 2.57 3.99 4.68 7.59 4.7 8 0.01 0.41 1.59 3.11 3.5 6 1.91 2.89 3.47 5.47 3.47 5.75 0 0.27 1.42 3.54 3.15 7.25 1.73 3.71 4.23 9.67 5.56 13.25 1.33 3.57 3.1 8.75 3.95 11.5 0.85 2.75 1.94 6.01 2.44 7.25 0.49 1.24 0.9 3.6 0.9 5.25 0 1.65 0.54 4.01 1.2 5.25 0.66 1.24 1.56 4.72 2.01 7.75 0.44 3.02 1.37 10.67 2.05 17 0.95 8.79 1.24 61.17 1.24 222 0 160.83-0.29 213.21-1.24 222-0.68 6.32-1.6 13.97-2.03 17-0.44 3.02-1.21 6.17-1.71 7-0.51 0.82-1.26 3.3-1.67 5.5-0.4 2.2-1.16 6.02-1.69 8.5-0.52 2.47-2.31 7.87-3.98 12-1.66 4.12-3.33 8.62-3.72 10-0.39 1.37-4.08 9.02-8.21 17-4.13 7.97-8.5 15.85-9.71 17.5-1.22 1.65-5.53 7.5-9.6 13-4.06 5.5-12.57 15.12-18.91 21.37-6.34 6.26-15.06 13.91-19.38 17-4.32 3.1-11.52 8.05-16 11-4.48 2.95-13.78 8.07-20.65 11.37-6.88 3.3-14.97 6.81-18 7.79-3.03 0.99-7.19 2.51-9.25 3.38-2.06 0.88-6.11 2.09-9 2.69-2.89 0.61-7.05 1.53-9.25 2.05-2.2 0.52-7.6 1.67-12 2.57-7.34 1.48-107.75 1.65-1223.5 1.99-1074.7 0.32-1216.48 0.19-1224-1.13-4.68-0.82-9.85-1.76-11.5-2.09-1.65-0.33-4.8-1-7-1.49-2.2-0.48-6.02-1.32-8.5-1.85-2.48-0.53-6.3-1.72-8.5-2.64-2.2-0.93-6.48-2.5-9.5-3.5-3.02-1-10.23-3.95-16-6.56-5.77-2.62-14.55-7.21-19.5-10.2-4.95-3-13.27-8.66-18.49-12.6-5.22-3.93-15.3-13-22.41-20.15-7.1-7.15-14.64-15.59-16.76-18.75-2.11-3.16-4.29-5.98-4.84-6.25-0.55-0.28-4.09-5.79-7.87-12.25-3.77-6.46-8.68-15.58-10.9-20.25-2.21-4.68-5.16-11.88-6.54-16-1.38-4.13-2.95-8.63-3.49-10-0.55-1.38-1.47-4.3-2.05-6.5-0.59-2.2-1.58-6.48-2.21-9.5-0.62-3.03-1.75-8.43-2.49-12-0.75-3.58-1.82-10.55-2.4-15.5-0.68-5.95-1.04-81.13-1.04-222-0.01-140.6 0.34-215.89 1.02-221.5 0.57-4.68 1.65-11.43 2.41-15 0.75-3.58 1.88-8.98 2.5-12 0.63-3.03 1.62-7.3 2.21-9.5 0.58-2.2 1.5-5.13 2.05-6.5 0.54-1.38 2.12-5.88 3.52-10 1.39-4.13 4.58-11.78 7.09-17 2.5-5.23 6.71-13.1 9.34-17.5 2.63-4.4 6.92-10.93 9.52-14.5 2.61-3.58 7.43-9.65 10.72-13.5 3.28-3.85 10.05-10.96 15.04-15.8 4.99-4.85 13.12-11.85 18.07-15.56 4.95-3.71 12.37-8.73 16.5-11.15 4.12-2.42 12-6.71 17.5-9.52 5.5-2.82 13.15-6.16 17-7.43 3.85-1.27 9.25-3.22 12-4.34 2.75-1.12 6.91-2.41 9.25-2.87 2.34-0.46 6.16-1.22 8.5-1.7 2.34-0.48 6.27-1.35 8.75-1.94 2.48-0.59 7.76-1.55 11.75-2.13 4.99-0.73 124.03-1.06 382.18-1.06 331.9 0 375.11-0.17 376.5-1.5 1.4-1.34 1.57-9.26 1.57-72.5 0-61.78-0.19-71.19-1.5-72.5-1.33-1.33-44.59-1.5-377.33-1.5-206.71 0-376.1 0.29-376.42 0.64z"/>
		<path id="Path 2" class="s2" d="m2053 1171.5c0 40.42 0.22 73.5 0.5 73.5 0.28 0 1.29 0.29 2.25 0.63 1.65 0.6 1.65 0.56-0.01-0.75-1.67-1.3-1.75-5.63-1.5-74.13 0.14-40.01-0.08-72.75-0.49-72.75-0.41 0-0.75 33.08-0.75 73.5zm907.8 127.7c2.58 2.31 6.53 5.8 8.76 7.75 2.24 1.95 0.44 0.07-4-4.18-4.43-4.25-8.38-7.73-8.76-7.75-0.39-0.01 1.41 1.87 4 4.18zm39.47 668.05c-1.05 1.79-2.71 4.6-3.7 6.25l-1.81 3c3.34-3.87 5.16-6.69 6.19-8.75 1.04-2.06 1.73-3.75 1.55-3.75-0.19 0-1.19 1.46-2.23 3.25zm-25.88 34.06c-4.89 5.13-12.04 12.18-15.89 15.68-3.85 3.5-5.65 5.43-4 4.29 1.65-1.15 7.55-6.51 13.1-11.93 5.56-5.42 11.55-11.54 13.32-13.6 1.77-2.06 3.02-3.75 2.78-3.75-0.23 0-4.43 4.19-9.31 9.31z"/>
		<path id="Path 3" class="s0" d="m1897 1087.59c3.58 1.35 6.61 2.22 6.75 1.93 0.14-0.29-2.22-1.42-5.25-2.52-3.03-1.1-6.06-1.97-6.75-1.93-0.69 0.04 1.67 1.17 5.25 2.52z"/>
		<path id="Path 4" class="s3" d="m2178 1519.07c-5.78 0.44-14.32 1.73-19 2.87-4.68 1.14-11.43 3.51-15 5.26-3.57 1.75-9.08 5.69-12.23 8.74-3.6 3.49-5.74 6.4-5.75 7.81-0.01 1.53 1.51 3.39 4.73 5.82 2.61 1.96 10.38 6.41 17.25 9.9 6.88 3.49 19.03 9.26 27 12.83 7.97 3.57 19.68 8.54 26 11.03 6.32 2.5 19.49 7.5 29.25 11.11 9.76 3.61 18.2 6.56 18.75 6.56 0.55 0-3.16-4.5-8.25-10.01-7.08-7.66-12.41-15.04-22.75-31.51-7.43-11.82-16.76-25.99-20.75-31.49-3.99-5.49-7.59-9.93-8-9.85-0.41 0.08-5.47 0.5-11.25 0.93z"/>
		<path id="Path 5" class="s4" d="m1196.98 1440.25c-0.01 0.69-0.44 7.55-0.95 15.25-0.6 9.11-1.82 17.49-3.5 24-1.42 5.5-3.78 12.03-5.25 14.5-1.47 2.47-4.83 6.64-7.47 9.25-2.73 2.7-7.94 6.26-12.06 8.24-5.75 2.76-10.05 3.91-20.75 5.51-7.42 1.12-17.55 3.18-22.5 4.58-4.95 1.41-12.15 3.86-16 5.46-3.85 1.59-10.83 5.19-15.5 8-4.67 2.81-11.61 7.66-15.4 10.78-3.8 3.12-9.79 9.05-13.31 13.18-3.53 4.13-9.18 11.55-12.56 16.5-3.37 4.95-8.04 13.05-10.37 18-2.33 4.95-5.42 13.05-6.86 18-1.45 4.95-3.32 14.17-4.17 20.5-1.05 7.79-1.36 15.05-0.96 22.5 0.33 6.05 1.32 14.83 2.21 19.5 0.88 4.67 2.97 12.55 4.62 17.5 1.66 4.95 4.67 12.38 6.68 16.5 2.01 4.13 5.89 10.88 8.61 15 2.73 4.13 8.85 11.55 13.61 16.5 4.76 4.95 12.65 11.87 17.53 15.39 4.88 3.51 13.82 8.78 19.87 11.7 6.05 2.92 14.83 6.41 19.5 7.77 4.67 1.35 12.33 3.01 17 3.7 4.67 0.69 14.12 1.25 21 1.24 7.15 0 16.36-0.69 21.5-1.62 4.95-0.89 12.6-2.8 17-4.23 4.4-1.44 12.5-4.77 18-7.41 5.5-2.64 13.6-7.49 18-10.79 4.4-3.3 11.77-9.99 16.39-14.87 4.61-4.88 11.22-13.16 14.69-18.38 3.46-5.22 7.84-12.88 9.73-17 1.89-4.13 4.57-11.1 5.97-15.5 1.4-4.4 3.26-11.83 4.15-16.5 0.88-4.67 1.87-13.45 2.2-19.5 0.41-7.55 0.09-14.77-1.01-23-0.88-6.6-2.78-15.83-4.23-20.5-1.44-4.67-4.63-13-7.09-18.5-2.45-5.5-5.33-13.38-6.39-17.5-1.13-4.38-1.93-10.83-1.93-15.5 0.01-4.4 0.72-10.7 1.58-14 0.86-3.3 3.19-9.15 5.18-13 2.9-5.62 6.58-9.97 18.69-22.04l15.07-15.04c-8.39-6.91-16.49-12.66-23.41-17.23-6.93-4.57-17.31-10.72-23.09-13.66-5.78-2.95-15.67-7.49-22-10.09-6.33-2.6-18.03-6.91-26-9.59-7.97-2.67-14.84-4.86-15.25-4.86-0.41 0.01-0.76 0.57-0.77 1.26z"/>
		<path id="Path 6" class="s5" d="m2594.5 1550.47c-0.55 0.17-4.32 0.89-8.38 1.58l-7.38 1.27c0.2 23 0.71 30.58 1.26 31.68 0.97 1.95 2 2 38.5 2 29.33 0 37.5-0.27 37.51-1.25 0-0.69-1.5-4.4-3.33-8.25-1.98-4.17-5.43-9.13-8.5-12.25-3.23-3.27-7.91-6.57-12.43-8.76-3.99-1.94-10.4-4.18-14.25-4.99-3.85-0.8-10.37-1.44-14.5-1.4-4.12 0.03-7.95 0.2-8.5 0.37zm-14.59 190.91c-1.01 1.07-1.2 5.31-0.86 18.75l0.45 17.37 136.5 0.5c-0.85-4.26-2.68-8.88-4.62-13-1.94-4.13-6.08-11.45-9.2-16.27l-5.68-8.77c-105.36 0.04-115.5 0.28-116.59 1.42z"/>
		<path id="Path 7" fill-rule="evenodd" class="s1" d="m1780.75 1002.1c2.34-0.05 6.39 0.34 9 0.89 2.61 0.54 6.66 2.34 9 4 2.62 1.85 5.21 4.93 6.75 8.01 2.39 4.78 2.5 5.79 2.48 22.75-0.02 15.01-0.31 18.37-1.85 21.75-1 2.2-3.69 5.69-5.97 7.75-2.68 2.41-6.21 4.33-9.91 5.38-4.14 1.18-7.57 1.45-12.25 0.98-3.58-0.36-8.3-1.47-10.5-2.48-2.2-1-5.85-3.8-12.23-10.63l-0.63 3.5c-0.34 1.92-0.62 31.51-0.63 65.75-0.01 53.09-0.23 62.76-1.51 65.75-0.83 1.92-3.19 5.21-5.25 7.3-2.1 2.13-6.17 4.73-9.25 5.91-3.03 1.15-9.1 2.42-13.5 2.82-5.9 0.54-9.96 0.31-15.5-0.88-4.98-1.06-9.01-2.68-12-4.8-2.47-1.76-5.09-3.91-5.8-4.77-0.72-0.87-2.18-3.38-3.23-5.58-1.85-3.84-1.93-7.1-1.93-82.5 0-76.11 0.06-78.63 1.98-82.75 1.2-2.58 4.04-5.85 7.23-8.32 2.89-2.23 7.05-4.6 9.25-5.24 2.2-0.65 8.95-1.15 15-1.11 7.4 0.05 12.96 0.66 17 1.85 4.67 1.38 7.15 2.91 16.36 12.07l0.69-5c0.38-2.75 1.49-6.58 2.47-8.5 0.97-1.92 2.83-4.66 4.13-6.07 1.29-1.42 3.81-3.33 5.6-4.25 1.79-0.92 4.94-2.08 7-2.58 2.06-0.49 5.66-0.94 8-1zm-421.75 12.39c9.44 0.24 16.59 0.95 20.5 2.04 3.3 0.92 9.38 3.02 13.5 4.67 4.13 1.64 11.21 5.42 15.75 8.39 4.54 2.98 11.55 8.67 15.59 12.66 4.03 3.99 9.66 10.51 12.5 14.5 4.46 6.27 5.23 6.95 5.65 5 0.26-1.24 0.49-7.65 0.5-14.25 0.01-6.6 0.51-13.8 1.11-16 0.72-2.63 2.86-5.73 6.25-9.06 4.16-4.08 6.4-5.4 11.65-6.86 5.13-1.43 8.82-1.72 17.5-1.34 9.04 0.4 11.98 0.94 16.5 3.04 3.03 1.4 6.67 4.05 8.09 5.89 1.43 1.83 6.54 10.08 11.35 18.33 4.82 8.25 9.5 15.82 10.41 16.83 1.6 1.77 1.67 1.77 2.33 0 0.37-1.01 0.72-7.23 0.77-13.83 0.07-9.26 0.51-12.91 1.89-16 0.99-2.2 3.57-5.48 5.73-7.29 2.34-1.95 6.77-4.14 10.93-5.39 5.91-1.78 8.71-2.03 18-1.6 7.96 0.36 12.25 1.05 15.5 2.5 2.47 1.09 6.04 3.29 7.92 4.89 1.88 1.59 4.24 4.69 5.23 6.89 1.69 3.75 1.81 8.95 1.81 83 0 74.05-0.12 79.25-1.81 83-0.99 2.2-3.35 5.31-5.23 6.91-1.88 1.6-5.22 3.71-7.42 4.7-2.2 0.99-7.15 2.09-11 2.45-3.85 0.36-10.6 0.14-15-0.48-5.39-0.77-9.22-1.94-11.75-3.61-2.06-1.36-4.89-3.71-6.27-5.22-1.39-1.51-6.21-8.6-10.71-15.75-4.5-7.15-9.73-15.47-11.62-18.5-3.26-5.23-3.49-5.4-4.82-3.5-1.05 1.5-1.36 5.36-1.23 15.5 0.09 8.13-0.29 14.59-0.97 16.25-0.62 1.51-2.64 4.44-4.48 6.5-1.84 2.06-5.67 4.76-8.5 6-3.7 1.62-8.04 2.43-15.4 2.88-6.69 0.41-12.33 0.2-16.25-0.61-3.3-0.69-7.65-2.43-9.67-3.88-2.02-1.45-4.85-4.22-6.28-6.14-1.44-1.92-3.04-5.08-3.57-7-0.53-1.92-1-9.13-1.04-16-0.05-6.88-0.39-13.32-0.76-14.32-0.55-1.47-1.65-0.41-5.68 5.42-2.75 3.99-7.74 10.21-11.1 13.82-3.35 3.62-9.42 8.91-13.5 11.75-4.07 2.84-10.78 6.7-14.9 8.57-4.12 1.87-10.88 4.38-15 5.58-4.12 1.2-12 2.55-17.5 3-5.5 0.45-14.28 0.44-19.5-0.02-5.22-0.47-13.33-2.01-18-3.44-4.67-1.42-11.2-3.94-14.5-5.61-3.3-1.66-8.7-4.84-12-7.06-3.3-2.22-9.41-7.45-13.58-11.61-4.16-4.17-9.39-10.28-11.61-13.58-2.22-3.3-5.17-8.25-6.56-11-1.39-2.75-3.88-8.83-5.54-13.5-1.65-4.67-3.5-11.99-4.11-16.25-0.6-4.26-1.1-11.24-1.11-15.5-0.01-4.26 0.7-11.8 1.56-16.75 0.86-4.95 3.01-12.83 4.76-17.5 1.76-4.67 5.22-11.88 7.69-16 2.48-4.13 7.88-11.06 12-15.41 4.13-4.35 11.1-10.58 15.5-13.85 4.4-3.27 11.15-7.44 15-9.27 3.85-1.83 9.9-4.11 13.44-5.08 3.54-0.96 8.71-2.09 11.5-2.51 2.78-0.42 11.59-0.59 19.56-0.39zm286.5 0.1c6.71 0.38 9.19 1.06 15.39 4.18 5.17 2.61 8.24 4.93 10.24 7.73 1.61 2.25 3.3 6.4 3.88 9.5 0.67 3.55 0.94 32.15 0.76 80.5-0.24 65.56-0.47 75.44-1.84 78.5-0.86 1.92-3.34 5.44-5.5 7.81-2.27 2.49-5.83 5.02-8.43 6-3.4 1.28-7.67 1.68-17.5 1.66-10.15-0.02-14.21-0.45-18.5-1.94-3.03-1.05-7.26-3.51-9.41-5.47-2.14-1.96-4.72-5.36-5.72-7.56-1.72-3.76-1.83-8.71-1.87-160.5l2.25-4.66c1.24-2.57 3.6-5.77 5.25-7.13 1.65-1.35 5.14-3.53 7.75-4.84 2.61-1.3 7.11-2.79 10-3.31 2.89-0.51 8.85-0.73 13.25-0.47zm239 3.86c10.83 0.29 16.94 0.95 22 2.37 3.85 1.08 9.03 2.72 11.5 3.63 2.47 0.91 6.75 2.95 9.5 4.52 2.75 1.58 7.2 4.82 9.89 7.2 2.68 2.38 5.93 6.13 7.21 8.33 1.29 2.2 2.63 6.03 2.99 8.5 0.44 3.02 0.09 6.48-1.06 10.5-0.94 3.3-3.22 8.47-5.05 11.5-1.84 3.03-5.06 7.16-7.16 9.2-2.1 2.03-5.85 4.61-8.32 5.72-2.65 1.2-6.66 2.05-9.75 2.06-3.65 0.01-8.06-1.06-14.5-3.53-5.09-1.96-9.63-3.42-10.1-3.25-0.46 0.16 2.24 1.37 6 2.68 3.77 1.31 10.9 4.38 15.85 6.83 4.95 2.45 11.25 6.14 14 8.19 2.75 2.06 7.03 6.41 9.52 9.67 2.48 3.26 5.51 7.96 6.72 10.43 1.21 2.47 3.12 8.1 4.24 12.5 1.13 4.4 2.04 10.81 2.03 14.25 0 3.44-0.5 8.61-1.11 11.5-0.6 2.89-2.69 8.62-4.65 12.75-2.6 5.49-5.45 9.41-10.65 14.61-5.59 5.6-9.11 8.09-16.6 11.74-5.22 2.55-12.87 5.38-17 6.3-4.97 1.1-12.06 1.67-21 1.66-8.74 0-16.67-0.61-22.5-1.74-4.95-0.96-13.72-3.3-19.5-5.2-5.78-1.9-13.42-5.06-17-7.02-3.58-1.95-8.41-5.09-10.75-6.95-2.34-1.87-5.25-5.31-6.47-7.65-1.75-3.34-2.23-5.96-2.25-12.25-0.03-6.94 0.38-8.86 3.1-14.5 1.71-3.58 4.67-8.3 6.56-10.5 1.89-2.2 5.89-5.24 8.88-6.76 2.98-1.52 7.04-2.76 9.01-2.75 1.97 0 3.89-0.21 4.25-0.49 0.37-0.28-2.88-3.99-7.21-8.25-5.4-5.31-8.9-9.8-11.12-14.25-1.78-3.58-4.09-9.88-5.13-14-1.08-4.27-1.89-10.95-1.89-15.5 0.01-4.4 0.7-10.7 1.54-14 0.85-3.3 2.99-8.85 4.76-12.33 1.77-3.49 5.47-8.85 8.22-11.92 2.75-3.07 8.15-7.78 12-10.46 3.85-2.68 10.38-6.17 14.5-7.75 4.13-1.58 10.65-3.58 14.5-4.44 5.23-1.17 10.78-1.46 22-1.15zm-741 337.72c1.1-0.07 5.04 0.31 8.75 0.85 3.71 0.54 9.56 2.3 13 3.92 3.44 1.61 8.54 5.1 11.33 7.75 2.79 2.64 6.8 7.51 8.9 10.81 2.1 3.3 4.67 8.7 5.7 12 1.03 3.3 2.51 10.95 3.28 17 0.77 6.05 1.69 15.5 2.04 21 0.35 5.5 0.18 16.75-0.38 25-0.68 9.98-1.88 18.35-3.59 25-1.42 5.5-3.78 12.03-5.25 14.5-1.47 2.47-4.83 6.64-7.47 9.25-2.73 2.7-7.94 6.26-12.06 8.24-5.75 2.76-10.05 3.91-20.75 5.51-7.42 1.12-17.55 3.18-22.5 4.58-4.95 1.41-12.15 3.86-16 5.46-3.85 1.59-10.83 5.19-15.5 8-4.67 2.81-11.61 7.66-15.4 10.78-3.8 3.12-9.79 9.05-13.31 13.18-3.53 4.12-9.18 11.55-12.56 16.5-3.37 4.95-8.04 13.05-10.37 18-2.33 4.95-5.42 13.05-6.86 18-1.45 4.95-3.32 14.17-4.17 20.5-1.05 7.79-1.36 15.05-0.96 22.5 0.33 6.05 1.32 14.83 2.21 19.5 0.88 4.67 2.97 12.55 4.62 17.5 1.66 4.95 4.67 12.37 6.68 16.5 2.01 4.12 5.89 10.87 8.61 15 2.73 4.12 8.85 11.55 13.61 16.5 4.76 4.95 12.65 11.87 17.53 15.39 4.88 3.51 13.82 8.78 19.87 11.7 6.05 2.92 14.83 6.41 19.5 7.77 4.67 1.35 12.33 3.01 17 3.7 4.67 0.69 14.13 1.25 21 1.24 7.15 0 16.36-0.69 21.5-1.62 4.95-0.89 12.6-2.8 17-4.23 4.4-1.44 12.5-4.77 18-7.41 5.5-2.64 13.6-7.49 18-10.79 4.4-3.3 11.77-9.99 16.39-14.87 4.61-4.88 11.22-13.16 14.69-18.38 3.46-5.22 7.84-12.88 9.73-17 1.89-4.13 4.57-11.1 5.97-15.5 1.4-4.4 3.26-11.83 4.15-16.5 0.88-4.68 1.87-13.45 2.2-19.5 0.41-7.55 0.09-14.77-1.01-23-0.88-6.6-2.78-15.83-4.23-20.5-1.44-4.68-4.63-13-7.09-18.5-2.45-5.5-5.33-13.38-6.39-17.5-1.13-4.38-1.93-10.83-1.93-15.5 0.01-4.4 0.72-10.7 1.58-14 0.86-3.3 3.2-9.15 5.2-13 2.83-5.44 6.65-10.03 17.19-20.62 8.12-8.17 16.35-15.41 20.55-18.07 3.85-2.45 12.4-6.83 19-9.74 6.6-2.9 14.92-5.9 18.5-6.66 3.58-0.76 9.87-1.39 14-1.4 4.12-0.01 10.09 0.66 13.25 1.48 3.16 0.83 8.11 2.69 11 4.13 2.89 1.44 7.24 4.25 9.66 6.25 2.43 2 6.3 6.33 8.6 9.63 2.29 3.3 6.23 9.83 8.74 14.5 2.52 4.67 6.46 12.78 8.77 18 2.3 5.22 5.54 13.1 7.19 17.5 1.65 4.4 4.53 13.17 6.41 19.5 1.88 6.33 4.52 16.9 5.87 23.5 1.36 6.6 3.19 18.07 4.06 25.5 1 8.47 1.59 21.52 1.58 35-0.02 15.49-0.57 25.7-1.98 36.5-1.08 8.25-3.17 20.4-4.64 27-1.47 6.6-5.36 20.1-8.64 30-4.03 12.16-8.83 23.84-14.8 36-5.17 10.55-12.58 23.59-17.9 31.5-4.99 7.42-13.01 18.45-17.83 24.5-4.82 6.05-13.96 16.34-20.3 22.87-6.35 6.52-16.26 15.68-22.04 20.33-5.78 4.66-14.78 11.29-20 14.74-5.22 3.44-14.45 9.02-20.5 12.39-6.05 3.37-16.63 8.55-23.5 11.52-6.88 2.96-18.13 7.21-25 9.44-6.88 2.23-16.1 4.97-20.5 6.1-4.4 1.12-11.6 2.75-16 3.61-4.4 0.87-12.95 2.24-19 3.04-6.05 0.8-18.42 1.74-27.5 2.1-10.1 0.4-22.32 0.18-31.5-0.56-8.25-0.67-20.17-2.08-26.5-3.15-6.33-1.06-17.13-3.34-24-5.05-6.88-1.71-16.78-4.6-22-6.41-5.22-1.82-14.45-5.42-20.5-8-6.05-2.57-15.95-7.41-22-10.74-6.05-3.33-15.05-8.76-20-12.06-4.95-3.31-13.27-9.41-18.5-13.56-5.23-4.15-15.74-13.64-23.36-21.08-7.63-7.44-17.65-18.03-22.28-23.53-4.62-5.5-12.63-16.3-17.78-24-5.16-7.7-12.33-19.63-15.93-26.5-3.6-6.88-8.37-16.89-10.6-22.25-2.23-5.36-5.87-15.04-8.1-21.5-2.22-6.46-5.36-16.92-6.96-23.25-1.6-6.33-3.8-17.13-4.9-24-1.1-6.88-2.47-17.67-3.04-24-0.58-6.33-1.05-17.13-1.05-24-0.01-6.88 0.67-19.59 1.5-28.25 0.82-8.66 2.43-20.59 3.56-26.5 1.14-5.91 2.97-14.35 4.08-18.75 1.11-4.4 3.84-13.63 6.08-20.5 2.23-6.88 6.27-17.67 8.98-24 2.71-6.33 6.99-15.33 9.51-20 2.53-4.67 7.32-12.78 10.66-18 3.33-5.22 9.06-13.55 12.73-18.5 3.68-4.95 10.2-13.05 14.51-18 4.31-4.95 12.35-13.45 17.86-18.88 5.52-5.44 14.53-13.5 20.03-17.91 5.5-4.42 15.4-11.58 22-15.93 6.6-4.34 18.52-11.2 26.5-15.24 7.97-4.05 16.97-8.32 20-9.5 3.03-1.18 10.45-3.9 16.5-6.03 6.05-2.14 15.28-5.03 20.5-6.44 5.22-1.4 14.22-3.41 20-4.45 5.78-1.05 15.22-2.41 21-3.03 5.78-0.61 11.85-1.27 13.5-1.45 1.65-0.19 3.9-0.4 5-0.47zm-652 1.96c7.94-0.06 18.55 0.55 24.5 1.42 5.77 0.83 14.1 2.41 18.5 3.49 4.4 1.08 10.7 3.27 14 4.87 3.97 1.93 8.2 5.23 12.51 9.75 3.58 3.76 7.36 8.64 8.41 10.84 1.05 2.2 2.5 6.25 3.23 9 1.06 3.99 1.33 24.21 1.34 99.75 0.01 62.15 0.35 94.92 1.01 95.25 0.55 0.28 3.36-1.18 6.25-3.23 2.89-2.05 7.5-4.63 10.25-5.74 4.62-1.86 7.9-2.05 43.1-2.52 31.93-0.43 38.37-0.75 39.79-2.01 1.57-1.39 1.7-7.85 1.65-87.5-0.04-74.97 0.15-86.77 1.52-92 0.86-3.3 2.77-8.21 4.25-10.9 1.48-2.7 4.31-6.75 6.29-9 1.97-2.26 6.02-5.77 9-7.81 2.97-2.04 8.55-4.82 12.4-6.17 3.85-1.36 12.62-3.19 19.5-4.07 6.87-0.87 17.67-1.87 24-2.2 6.58-0.35 16.85-0.1 24 0.6 6.87 0.66 16.55 2.04 21.5 3.07 4.95 1.02 11.02 2.58 13.5 3.47 2.48 0.88 6.71 3.05 9.41 4.81 2.7 1.76 7.17 5.67 9.92 8.7 2.75 3.03 6.39 8.42 11.17 18.5l0.25 248c0.24 225.37 0.11 248.5-1.35 253.5-0.88 3.03-2.46 7.19-3.5 9.25-1.05 2.06-4.71 6.72-8.15 10.35-4.71 4.98-8.22 7.56-14.25 10.5-4.4 2.14-11.15 4.54-15 5.33-3.85 0.79-12.63 1.93-19.5 2.54-9.16 0.8-16.78 0.79-28.5-0.03-8.8-0.63-21.4-1.94-28-2.91-6.6-0.98-14.7-2.83-18-4.1-3.3-1.27-8.68-4.37-11.95-6.87-3.27-2.51-7.88-7.37-10.25-10.81-2.36-3.44-5.08-8.61-6.04-11.5-1.58-4.78-1.76-12.25-1.99-83.25-0.14-42.9-0.48-79.01-1.27-82.5l-31.75-0.01c-17.46 0-35.35-0.41-39.75-0.9-4.4-0.49-10.48-1.94-13.5-3.23-3.02-1.28-7.41-3.8-9.75-5.6-2.34-1.79-4.7-3.04-5.25-2.76-0.55 0.28-1 3.31-0.99 6.75 0 3.44-0.7 8.95-1.55 12.25-0.85 3.3-2.99 8.41-4.75 11.36-1.77 2.95-5.46 7.39-8.21 9.87-2.75 2.48-7.02 5.51-9.5 6.75-2.48 1.23-7.42 3.19-11 4.34-3.58 1.15-9.42 2.76-13 3.57-3.58 0.81-11 1.92-16.5 2.47-5.5 0.55-15.85 0.82-23 0.6-7.15-0.23-15.25-0.7-18-1.06-2.75-0.35-10.63-2.19-17.5-4.08-6.88-1.89-15.15-4.87-18.38-6.63-3.23-1.75-7.76-5.22-10.06-7.69-2.3-2.47-5.37-6.53-6.82-9-1.45-2.47-3.34-7.2-4.19-10.5-1.38-5.31-1.56-25.07-1.56-173 0-148.02 0.18-167.68 1.56-173 0.86-3.3 2.89-8.03 4.51-10.5 1.63-2.47 3.97-5.63 5.2-7 1.24-1.38 4.27-4.17 6.74-6.2 2.49-2.06 8.07-5.02 12.5-6.65 4.4-1.62 11.82-3.67 16.5-4.55 4.68-0.88 11.2-2 14.5-2.48 3.3-0.48 12.3-0.93 20-0.99zm1341.5 1.35c12.21 0.21 22.87 0.94 28.5 1.95 5.64 1.02 11.8 2.98 16.5 5.27 5.16 2.5 9.58 5.69 14.15 10.22 4.45 4.4 7.69 8.74 9.75 13.08 2.14 4.5 3.4 9.12 4.09 15 0.62 5.29 0.99 66.93 0.99 163 0 93.54-0.4 161.21-1.02 171.5-0.62 10.19-2.03 22.01-3.54 29.5-1.39 6.87-4.38 18.12-6.65 25-2.28 6.87-7.34 18.8-11.26 26.5-3.92 7.7-9.29 17.15-11.94 21-2.65 3.85-7.63 10.6-11.07 15-3.45 4.4-11.38 12.97-17.63 19.04-6.25 6.07-14.07 13.09-17.37 15.61-3.3 2.52-9.83 7.07-14.5 10.11-4.67 3.05-13.22 8.04-19 11.1-5.78 3.06-16.58 7.86-24 10.66-7.42 2.8-18.45 6.38-24.5 7.95-6.05 1.57-17.53 3.9-25.5 5.18-12.29 1.96-18.16 2.31-38.5 2.29-18.23-0.02-26.4-0.44-34-1.77-5.5-0.95-15.4-3.14-22-4.86-6.6-1.72-16.28-4.8-21.5-6.84-5.22-2.04-13.33-5.63-18-7.98-4.67-2.35-12.33-6.64-17-9.53-4.67-2.89-11.88-7.85-16-11.02-4.13-3.17-10.84-8.72-14.92-12.35-4.09-3.62-11.66-11.54-16.83-17.59-5.17-6.05-12.01-14.83-15.19-19.5-3.18-4.67-7.93-12.33-10.56-17-2.64-4.67-6.47-12.33-8.53-17-2.05-4.67-5.38-13.45-7.39-19.5-2.02-6.05-4.74-16.4-6.07-23-1.32-6.6-2.88-17.17-3.45-23.5-0.62-6.79-1.06-42.21-1.07-86.5-0.01-47.42 0.37-77.02 1.02-80.5 0.57-3.03 2.42-8.42 4.11-12 1.94-4.11 5.15-8.53 8.73-12.03 3.11-3.04 8.57-7 12.15-8.79 4.8-2.39 10.17-3.9 20.5-5.73 7.7-1.37 20.08-2.76 27.5-3.1 7.87-0.35 17.88-0.14 24 0.53 5.78 0.62 15.22 2.03 21 3.12 5.99 1.13 13.08 3.24 16.5 4.9 3.3 1.61 8.47 5.33 11.5 8.27 3.03 2.95 6.69 7.37 8.15 9.84 1.45 2.47 3.36 6.96 4.23 9.99 1.37 4.76 1.62 16.01 1.89 84 0.28 72.8 0.44 78.9 2.13 84 1 3.03 2.73 7.3 3.83 9.5 1.11 2.2 3.64 6 5.64 8.45 2 2.45 6.1 6.29 9.13 8.54 3.03 2.25 8.42 5.09 12 6.31 3.58 1.22 9.42 2.49 13 2.84 3.58 0.34 10.55 0.06 15.5-0.62 4.95-0.69 12.37-2.53 16.5-4.09 4.12-1.57 10.2-4.61 13.5-6.76 3.3-2.16 7.8-5.67 10-7.81 2.2-2.14 5.4-5.9 7.1-8.37 1.71-2.47 4.07-7.08 7.4-15.99l0.02-162.75c0.01-100.94 0.39-165.31 1-169.5 0.54-3.71 2.22-9.33 3.73-12.48 1.51-3.15 5.67-8.82 9.25-12.6 4.73-5.01 8.4-7.79 13.5-10.25 3.85-1.86 10.6-4.07 15-4.91 4.4-0.84 12.05-1.94 17-2.44 4.95-0.51 17.78-0.77 28.5-0.59zm-280.5 1.03c14.83 0.24 27.44 0.96 33 1.89 4.95 0.83 11.47 2.43 14.5 3.56 3.03 1.13 8.2 4.21 11.5 6.85 3.3 2.63 7.71 7.24 9.79 10.24 2.09 3 4.86 8.82 6.17 12.95 1.3 4.12 3.08 12.22 3.94 18 0.93 6.17 1.59 17.1 1.59 26.5 0.01 8.8-0.45 19.83-1.02 24.5-0.58 4.67-1.96 11.87-3.08 16-1.11 4.12-3.46 10.19-5.21 13.47-1.75 3.29-5.54 8.35-8.43 11.25-3.3 3.32-7.94 6.57-12.5 8.74-3.99 1.91-10.74 4.16-15 5-4.26 0.85-14.84 2.05-23.5 2.67-11.74 0.84-19.82 0.83-31.75-0.02-8.8-0.63-19.15-1.82-23-2.64-3.85-0.82-9.7-2.78-13-4.35-3.3-1.58-7.91-4.27-10.25-5.99-2.34-1.72-6.3-5.94-8.81-9.38-2.5-3.44-5.43-8.61-6.5-11.5-1.07-2.89-2.84-10.76-3.94-17.5-1.45-8.86-2-16.96-1.99-29.25 0.01-10.24 0.61-20.78 1.52-26.5 0.83-5.22 2-11.97 2.61-15 0.61-3.03 2.47-8.2 4.13-11.5 1.67-3.3 5.55-8.52 8.63-11.6 3.08-3.08 8.41-7.01 11.85-8.75 3.44-1.73 9.29-3.86 13-4.72 3.71-0.87 10.12-1.97 14.25-2.44 4.12-0.48 18.3-0.69 31.5-0.48zm1087.5 3.81c171.09 0.18 172.55 0.2 178.5 2.23 3.3 1.13 8.03 3.44 10.5 5.14 2.47 1.69 6.64 5.27 9.26 7.95 2.62 2.67 6.07 7.33 7.68 10.36 1.61 3.03 3.85 8.87 4.98 13 1.13 4.12 2.5 11.78 3.05 17 0.55 5.22 1 14.34 1.01 20.25 0.01 5.91-0.46 15.14-1.04 20.5-0.59 5.36-1.88 13.58-2.88 18.25-1 4.67-3.11 11.18-4.69 14.47-1.58 3.28-5.39 8.68-8.47 12-3.55 3.82-8.12 7.37-12.5 9.69-3.79 2.02-9.6 4.16-12.9 4.76-4.13 0.75-43.36 1.09-125.75 1.09-78.84-0.01-119.92 0.33-120.25 0.99-0.28 0.55 0.85 2.58 2.5 4.5 1.65 1.92 3.9 5.3 5 7.5 1.1 2.2 2.68 6.59 3.51 9.75 1.05 4.02 1.5 10.79 1.5 22.5-0.01 9.21 0.44 17.65 0.99 18.75 0.99 1.98 2.01 2 84.75 2.01 70.56 0.02 84.73 0.25 90 1.5 3.44 0.82 8.61 2.68 11.5 4.14 2.89 1.46 7.77 5.18 10.85 8.25 3.07 3.08 6.74 7.85 8.15 10.6 1.4 2.75 3.23 7.7 4.06 11 0.83 3.3 2.11 10.05 2.84 15 0.78 5.24 1.3 16.72 1.24 27.5-0.06 11.41-0.7 22.52-1.69 29-0.88 5.78-2.32 12.53-3.2 15-0.88 2.47-3.04 6.71-4.8 9.41-1.76 2.71-5.26 6.76-7.78 9-2.52 2.25-6.8 5.31-9.5 6.81-2.71 1.49-8.07 3.4-11.92 4.24-5.96 1.29-19.33 1.51-90 1.48-66.68-0.02-83.24 0.22-84.23 1.26-0.91 0.95-1.17 6.01-0.77 36.3l117.5 0.52c94.44 0.42 118.28 0.79 121.5 1.87 2.2 0.73 6.25 2.48 9 3.88 2.75 1.39 7.54 5.06 10.65 8.13 3.5 3.48 6.81 8.06 8.72 12.1 1.69 3.58 4.21 11.79 5.6 18.25 1.39 6.46 2.92 17.04 3.4 23.5 0.48 6.46 0.74 13.55 0.57 15.75-0.16 2.2-0.57 7.83-0.89 12.5-0.33 4.67-1.53 12.33-2.68 17-1.15 4.67-3.65 11.87-5.57 16-2.49 5.37-5.23 9.23-9.64 13.57-3.39 3.34-8.63 7.27-11.66 8.73-3.03 1.47-7.97 3.13-11 3.7-3.62 0.67-64.31 1.02-177.5 1.02-149.92-0.01-172.74-0.2-177.75-1.51-3.16-0.83-7.66-2.48-10-3.67-2.34-1.19-6.67-4.45-9.62-7.25-2.95-2.8-6.6-6.89-8.1-9.09-1.51-2.2-3.81-6.7-7.53-16l-0.28-170.5c-0.19-119.01 0.05-172.61 0.81-177.5 0.6-3.85 2.37-9.7 3.94-13 1.56-3.3 5.03-8.28 7.69-11.07 2.66-2.79 6.19-6.04 10.84-9.38l-5.94-5.28c-3.26-2.9-7.67-7.97-9.79-11.27-2.13-3.3-4.76-8.92-5.85-12.5-1.09-3.58-2.66-11.67-3.49-18-0.82-6.33-1.55-18.03-1.62-26-0.07-9.2 0.53-18.89 1.64-26.5 0.97-6.6 2.64-14.7 3.73-18 1.09-3.3 3.26-8.03 4.82-10.5 1.56-2.47 5.24-6.79 8.17-9.59 2.93-2.8 7.8-6.35 10.83-7.88 3.03-1.53 8.2-3.37 11.5-4.09 4.82-1.04 40.06-1.26 178.5-1.12zm-459.5 5.1c15.14 0.26 28.46 1.1 39 2.46 8.8 1.13 22.3 3.47 30 5.19 7.7 1.72 20.07 5.11 27.5 7.54 7.43 2.43 18.45 6.85 24.5 9.82 6.05 2.97 16.63 9.15 23.52 13.74 6.88 4.58 15.88 11.07 20 14.42 4.11 3.35 9.44 8.3 11.84 11 2.4 2.7 5.66 7.16 7.24 9.91 1.59 2.75 3.85 7.92 5.04 11.5 1.78 5.38 2.03 7.79 1.49 14-0.37 4.12-1.82 12.67-3.22 19-1.41 6.33-4.23 15.33-6.27 20-2.04 4.67-5.94 11.86-8.67 15.96-2.74 4.1-7.67 10.36-10.97 13.92-3.3 3.55-9.6 9.14-14 12.41-4.4 3.26-10.25 7.08-13 8.47-2.75 1.39-7.47 3.38-10.5 4.42-3.03 1.05-8.88 2.17-13 2.5-5.44 0.43-9.01 0.15-13-1.02-3.03-0.89-7.97-3.51-11-5.83-3.03-2.32-9.95-7.62-15.39-11.77-5.44-4.16-13.99-10.51-19-14.12-5.01-3.6-11.14-7.75-13.61-9.21-2.85-1.68-7.25-3.05-12-3.74-4.13-0.59-9.3-0.97-11.5-0.84-2.2 0.14-4.45 0-5-0.29-0.55-0.29-6.18-0.15-12.5 0.32-6.32 0.47-15.1 1.75-19.5 2.85-4.4 1.09-10.93 3.42-14.5 5.17-3.57 1.75-9.08 5.69-12.23 8.74-3.6 3.49-5.74 6.4-5.75 7.81-0.01 1.53 1.51 3.39 4.73 5.82 2.61 1.96 10.37 6.41 17.25 9.9 6.87 3.49 19.03 9.26 27 12.83 7.97 3.57 19.68 8.54 26 11.03 6.32 2.5 19.49 7.5 29.25 11.11 9.76 3.61 18.31 6.56 19 6.55 0.69 0 2.15 0.59 3.25 1.33 1.1 0.73 7.62 3.71 14.5 6.62 6.87 2.91 17.22 7.56 23 10.35 5.78 2.78 14.55 7.5 19.5 10.5 4.95 3 12.37 8.26 16.5 11.69 4.12 3.43 10.43 9.37 14 13.21 3.57 3.83 9.25 10.98 12.62 15.89 3.37 4.91 7.53 11.73 9.25 15.17 1.72 3.44 4.28 9.29 5.7 13 1.41 3.71 3.62 11.25 4.91 16.75 1.3 5.5 2.89 14.28 3.55 19.5 0.73 5.87 1 16.76 0.7 28.5-0.35 13.93-1.04 21.67-2.58 29-1.16 5.5-3.39 13.83-4.97 18.5-1.58 4.67-5.2 13.22-8.05 19-2.86 5.78-8.1 14.55-11.65 19.5-3.55 4.95-9.5 12.35-13.22 16.44-3.72 4.1-10.13 10.32-14.26 13.82-4.13 3.51-11.32 9-16 12.2-4.68 3.2-13.22 8.32-19 11.38-5.78 3.05-15.68 7.55-22 9.98-6.32 2.43-15.55 5.58-20.5 6.99-4.95 1.41-13.5 3.48-19 4.6-5.5 1.12-15.85 2.73-23 3.58-7.15 0.85-21.32 1.58-31.5 1.61-12.22 0.04-22.23-0.49-29.5-1.56-6.05-0.89-13.7-2.31-17-3.14-3.3-0.83-8.03-2.63-10.5-3.98-2.47-1.36-6.71-4.6-9.41-7.2-2.7-2.59-5.96-6.3-7.24-8.22-1.28-1.92-3.5-7.1-4.95-11.5-2.18-6.65-2.71-10.45-3.13-22.5-0.32-9.09-0.05-17.67 0.74-23 0.68-4.67 2.56-12.55 4.17-17.5 1.61-4.95 5.01-12.83 7.56-17.5 2.55-4.67 6.91-10.9 9.7-13.82 2.78-2.93 6.86-6.37 9.06-7.65 2.2-1.27 6.47-3.11 9.5-4.09 4.68-1.51 9.7-1.8 33.5-1.93 23.25-0.13 29.02-0.46 34-1.89 3.3-0.96 7.8-2.52 10-3.49 2.2-0.96 5.97-3.52 8.37-5.69 2.4-2.17 4.99-5.18 5.75-6.69 0.76-1.51 1.38-4.21 1.37-6-0.01-1.79-1.05-5.5-2.31-8.25-1.73-3.76-3.53-5.76-7.24-8.09-2.72-1.69-8.99-4.9-13.94-7.12-4.95-2.22-13.72-5.74-19.5-7.82-5.78-2.08-17.03-5.91-25-8.52-7.97-2.6-23.95-8.21-35.5-12.47-11.55-4.25-27.97-10.64-36.5-14.19-8.53-3.55-20.9-9.08-27.5-12.3-6.6-3.21-17.51-9.47-24.25-13.92-8.47-5.58-15.42-11.23-22.54-18.32-5.82-5.8-12.73-13.94-15.89-18.75-3.08-4.67-7.23-11.76-9.21-15.75-1.99-3.99-4.92-10.51-6.51-14.5-1.6-3.99-4.03-11.53-5.4-16.75-1.37-5.22-3.05-14.22-3.73-20-0.76-6.42-1.02-15.74-0.67-24 0.32-7.42 1.09-16.2 1.71-19.5 0.61-3.3 2.48-10.72 4.14-16.5 1.65-5.78 5.25-15.22 7.99-21 2.74-5.78 6.62-13.2 8.61-16.5 1.99-3.3 6.76-10.28 10.6-15.5 3.85-5.22 11.3-13.8 16.57-19.05 5.27-5.25 12.73-12.03 16.58-15.06 3.85-3.04 9.7-7.34 13-9.57 3.3-2.22 10.28-6.5 15.5-9.51 5.22-3.02 13.78-7.41 19-9.76 5.22-2.35 13.1-5.54 17.5-7.09 4.4-1.54 12.28-4.04 17.5-5.54 5.22-1.51 16.7-4.01 25.5-5.57 15.16-2.68 17.21-2.81 39-2.43zm-170.25 380.61c3.16-0.02 9.24 0.68 13.5 1.55 4.26 0.87 12.47 3.36 18.25 5.53 5.78 2.17 13.65 5.74 17.5 7.93 3.85 2.19 9.25 5.93 12 8.31 2.8 2.42 6.39 6.93 8.17 10.24 1.74 3.25 3.87 8.61 4.73 11.91 0.86 3.3 1.57 8.36 1.58 11.25 0.01 2.89-0.95 9.19-2.13 14-1.19 4.81-3.94 13.03-6.12 18.25-2.17 5.22-4.83 11.75-5.91 14.5-1.07 2.75-3.28 7.7-4.91 11-1.63 3.3-4.98 8.59-7.44 11.75-2.46 3.16-6.61 7.32-9.22 9.24-2.61 1.91-7.22 4.47-10.25 5.68-4.28 1.72-7.6 2.21-15 2.24-5.37 0.02-11.24-0.54-13.5-1.3-2.2-0.73-7.15-3.27-11-5.63-3.85-2.36-9.36-6.81-12.25-9.88-3.14-3.35-6.86-8.91-9.25-13.85-2.24-4.62-5.07-12.87-6.45-18.75-1.35-5.78-2.9-14.78-3.45-20-0.66-6.19-0.68-13.16-0.06-20 0.53-5.78 1.91-13.88 3.08-18 1.17-4.13 3.23-9.97 4.57-13 1.34-3.03 3.92-7.3 5.73-9.5 1.81-2.2 5.24-5.35 7.63-7 2.38-1.65 6.61-3.77 9.39-4.72 2.78-0.94 7.65-1.73 10.81-1.75z"/>
		<path id="Path 8" class="s6" d="m574.5 1723.67c-0.46 0.36-0.76 3.4-0.66 6.75 0.09 3.34-0.53 8.78-1.38 12.08-0.85 3.3-2.99 8.41-4.75 11.36-1.77 2.95-5.46 7.39-8.21 9.87-2.75 2.48-7.02 5.51-9.5 6.75-2.48 1.23-7.42 3.19-11 4.34-3.58 1.15-9.42 2.76-13 3.57-3.58 0.81-11.23 1.96-17 2.56-5.77 0.59-14.32 0.78-19 0.4-4.68-0.37-9.29-0.37-10.25-0.01-1.56 0.59-1.29 1.55 2.49 8.91 2.33 4.54 6.77 11.62 9.86 15.75 3.09 4.12 8.27 9.78 11.51 12.58 3.24 2.79 7.91 6.44 10.39 8.11 2.48 1.68 7.31 4.45 10.75 6.18 3.44 1.72 11.31 4.59 17.5 6.38 10.85 3.13 11.89 3.25 29.25 3.23 16.15-0.01 19.08-0.29 28.5-2.67 5.77-1.46 14.1-4.22 18.5-6.13 4.4-1.91 13.17-5.95 19.5-8.97 6.33-3.03 16.67-7.84 23-10.69 6.33-2.85 12.29-5.38 13.25-5.6 1.62-0.39 1.75-2.89 1.75-34.92 0-18.97-0.23-35.18-0.5-36-0.43-1.29-4.92-1.5-32.25-1.51-17.46 0-35.35-0.41-39.75-0.9-4.4-0.49-10.48-1.94-13.5-3.23-3.02-1.28-7.41-3.8-9.75-5.6-2.34-1.79-4.4-3.26-4.58-3.26-0.19 0-0.71 0.3-1.17 0.67z"/>
		<path id="Path 9" class="s2" d="m1638.16 1643.8l-9.34 1.7c0.77 86.8 1.02 92.62 2.61 97.5 0.98 3.03 2.7 7.3 3.8 9.5 1.11 2.2 3.64 6 5.64 8.45 2 2.45 6.1 6.29 9.13 8.54 3.03 2.25 8.42 5.09 12 6.31 3.57 1.22 9.42 2.49 13 2.84 3.57 0.34 10.55 0.06 15.5-0.62 4.95-0.69 12.37-2.53 16.5-4.09 4.12-1.57 10.2-4.61 13.5-6.76 3.3-2.16 7.8-5.67 10-7.81 2.2-2.14 5.4-5.9 7.1-8.37 1.71-2.47 4.07-7.08 5.25-10.24 2.01-5.37 2.15-7.61 2.19-34l0.04-28.25c-5.1-2.25-13.55-7.61-22.08-13.38-8.53-5.76-19.1-12.19-23.5-14.28-4.4-2.1-11.6-4.77-16-5.94-5.84-1.55-11.77-2.21-22-2.45-10.09-0.25-16.61 0.13-23.34 1.35z"/>
		<path id="Path 10" class="s0" d="m1346.5 1081.51c-2.75 0.79-6.8 2.74-9 4.32-2.2 1.58-5.49 5.08-7.31 7.77-1.81 2.7-3.79 6.7-4.38 8.9-0.6 2.2-1.05 6.7-1.01 10 0.04 3.3 0.81 8.03 1.7 10.5 0.89 2.47 3.1 6.3 4.9 8.5 1.81 2.2 6.17 5.53 9.69 7.41 4.59 2.44 8.11 3.54 12.41 3.86 3.3 0.25 7.8-0.03 10-0.62 2.2-0.59 6.2-2.55 8.89-4.36 2.69-1.81 6.38-5.32 8.19-7.79 1.86-2.54 4.02-7.33 4.97-11 1.06-4.13 1.45-8.14 1.06-11-0.34-2.47-1.96-7.31-3.61-10.75-1.92-3.99-4.54-7.49-7.25-9.69-2.34-1.89-6.28-4.16-8.75-5.04-2.47-0.88-6.97-1.8-10-2.03-3.15-0.25-7.64 0.19-10.5 1.02z"/>
		<path id="Path 11" class="s1" d="m1148 1580.55c-3.58 0.77-8.53 2.14-11 3.04-2.47 0.91-6.53 2.79-9 4.19-2.47 1.4-7.14 4.61-10.36 7.13-3.23 2.53-7.91 7.29-10.4 10.59-2.5 3.3-6.11 9.38-8.01 13.5-1.91 4.13-4.09 10.43-4.84 14-0.74 3.58-1.36 9.09-1.37 12.25-0.01 3.16 0.68 9.24 1.53 13.5 0.91 4.53 3.39 11.49 5.97 16.75 2.42 4.95 6.81 11.93 9.75 15.5 2.93 3.58 8.24 8.69 11.78 11.36 3.55 2.68 8.59 5.94 11.2 7.25 2.61 1.32 8.01 3.29 12 4.39 4.61 1.28 10.35 2.01 15.75 2.01 4.67 0.01 10.97-0.46 14-1.04 3.03-0.58 8.2-2.16 11.5-3.52 3.3-1.35 8.41-3.92 11.35-5.71 2.95-1.78 8.3-6.16 11.89-9.74 3.6-3.57 8.26-9.42 10.37-13 2.11-3.57 5.01-9.87 6.46-14 1.82-5.2 2.79-10.41 3.16-17 0.42-7.61 0.11-11.19-1.58-18-1.16-4.67-4.03-12.32-6.38-17-3.38-6.74-6.12-10.37-13.26-17.54-7.24-7.26-10.69-9.87-17.51-13.28-4.67-2.33-11.65-4.89-15.5-5.69-3.85-0.8-10.15-1.43-14-1.39-3.85 0.03-9.92 0.69-13.5 1.45z"/>
	</g>
</svg>